%TF.GenerationSoftware,KiCad,Pcbnew,0.201604071231+6672~43~ubuntu15.10.1-product*%
%TF.CreationDate,2016-04-11T17:56:56+02:00*%
%TF.ProjectId,moto-dcdc,6D6F746F2D646364632E6B696361645F,rev?*%
%TF.FileFunction,Soldermask,Top*%
%FSLAX46Y46*%
G04 Gerber Fmt 4.6, Leading zero omitted, Abs format (unit mm)*
G04 Created by KiCad (PCBNEW 0.201604071231+6672~43~ubuntu15.10.1-product) date pon, 11 kwi 2016, 17:56:56*
%MOMM*%
G01*
G04 APERTURE LIST*
%ADD10C,0.100000*%
%ADD11R,2.203400X2.000200*%
%ADD12R,3.092400X2.000200*%
%ADD13R,1.400760X1.299160*%
%ADD14R,1.299160X1.400760*%
%ADD15R,2.099260X2.500580*%
%ADD16R,2.701240X2.398980*%
%ADD17R,5.900000X3.500000*%
%ADD18R,4.100780X2.200860*%
%ADD19R,1.900000X0.850000*%
%ADD20R,2.800000X3.500000*%
%ADD21R,3.400000X2.000000*%
%ADD22R,4.591000X5.226000*%
%ADD23C,2.940000*%
G04 APERTURE END LIST*
D10*
D11*
X138684000Y-109093000D03*
X138684000Y-106299000D03*
D12*
X135636000Y-109093000D03*
X135636000Y-106299000D03*
D13*
X141224000Y-108447840D03*
X141224000Y-106944160D03*
D14*
X145277840Y-111506000D03*
X143774160Y-111506000D03*
D13*
X154178000Y-114056160D03*
X154178000Y-115559840D03*
D12*
X140716000Y-84201000D03*
X140716000Y-81407000D03*
X152400000Y-84201000D03*
X152400000Y-81407000D03*
D15*
X139954000Y-98600260D03*
X139954000Y-102059740D03*
D16*
X135636000Y-98320860D03*
X135636000Y-102339140D03*
D17*
X161060000Y-98472000D03*
X161060000Y-88622000D03*
D18*
X131064000Y-102379780D03*
X131064000Y-98280220D03*
D14*
X143520160Y-118872000D03*
X145023840Y-118872000D03*
D13*
X157734000Y-114056160D03*
X157734000Y-115559840D03*
X155956000Y-115559840D03*
X155956000Y-114056160D03*
D19*
X144479000Y-113122000D03*
X144479000Y-114392000D03*
X144479000Y-116932000D03*
X144479000Y-115662000D03*
X149609000Y-115662000D03*
X149609000Y-116932000D03*
X149609000Y-114392000D03*
X149609000Y-113122000D03*
D20*
X147044000Y-115062000D03*
D21*
X152932000Y-103638000D03*
X152932000Y-108198000D03*
D22*
X159068000Y-105918000D03*
D23*
X146304000Y-78994000D03*
X131064000Y-94996000D03*
X134874000Y-90424000D03*
X146304000Y-84328000D03*
X131064000Y-86360000D03*
M02*
