%TF.GenerationSoftware,KiCad,Pcbnew,0.201604071231+6672~43~ubuntu15.10.1-product*%
%TF.CreationDate,2016-04-11T17:56:56+02:00*%
%TF.ProjectId,moto-dcdc,6D6F746F2D646364632E6B696361645F,rev?*%
%TF.FileFunction,Legend,Top*%
%FSLAX46Y46*%
G04 Gerber Fmt 4.6, Leading zero omitted, Abs format (unit mm)*
G04 Created by KiCad (PCBNEW 0.201604071231+6672~43~ubuntu15.10.1-product) date pon, 11 kwi 2016, 17:56:56*
%MOMM*%
G01*
G04 APERTURE LIST*
%ADD10C,0.100000*%
%ADD11C,0.300000*%
%ADD12C,0.127000*%
%ADD13C,0.150000*%
%ADD14C,0.203200*%
%ADD15R,2.203400X2.000200*%
%ADD16R,3.092400X2.000200*%
%ADD17R,1.400760X1.299160*%
%ADD18R,1.299160X1.400760*%
%ADD19R,2.099260X2.500580*%
%ADD20R,2.701240X2.398980*%
%ADD21R,5.900000X3.500000*%
%ADD22R,4.100780X2.200860*%
%ADD23R,1.900000X0.850000*%
%ADD24R,2.800000X3.500000*%
%ADD25R,3.400000X2.000000*%
%ADD26R,4.591000X5.226000*%
%ADD27C,2.940000*%
G04 APERTURE END LIST*
D10*
D11*
X148776142Y-78498000D02*
X148633285Y-78426571D01*
X148419000Y-78426571D01*
X148204714Y-78498000D01*
X148061857Y-78640857D01*
X147990428Y-78783714D01*
X147919000Y-79069428D01*
X147919000Y-79283714D01*
X147990428Y-79569428D01*
X148061857Y-79712285D01*
X148204714Y-79855142D01*
X148419000Y-79926571D01*
X148561857Y-79926571D01*
X148776142Y-79855142D01*
X148847571Y-79783714D01*
X148847571Y-79283714D01*
X148561857Y-79283714D01*
X149490428Y-79926571D02*
X149490428Y-78426571D01*
X150347571Y-79926571D01*
X150347571Y-78426571D01*
X151061857Y-79926571D02*
X151061857Y-78426571D01*
X151419000Y-78426571D01*
X151633285Y-78498000D01*
X151776142Y-78640857D01*
X151847571Y-78783714D01*
X151919000Y-79069428D01*
X151919000Y-79283714D01*
X151847571Y-79569428D01*
X151776142Y-79712285D01*
X151633285Y-79855142D01*
X151419000Y-79926571D01*
X151061857Y-79926571D01*
X136111857Y-88792857D02*
X136611857Y-88792857D01*
X136826142Y-89578571D02*
X136111857Y-89578571D01*
X136111857Y-88078571D01*
X136826142Y-88078571D01*
X137469000Y-89578571D02*
X137469000Y-88078571D01*
X138326142Y-89578571D01*
X138326142Y-88078571D01*
X126265857Y-92817142D02*
X127408714Y-92817142D01*
X126837285Y-93388571D02*
X126837285Y-92245714D01*
X128908714Y-93388571D02*
X128051571Y-93388571D01*
X128480142Y-93388571D02*
X128480142Y-91888571D01*
X128337285Y-92102857D01*
X128194428Y-92245714D01*
X128051571Y-92317142D01*
X129480142Y-92031428D02*
X129551571Y-91960000D01*
X129694428Y-91888571D01*
X130051571Y-91888571D01*
X130194428Y-91960000D01*
X130265857Y-92031428D01*
X130337285Y-92174285D01*
X130337285Y-92317142D01*
X130265857Y-92531428D01*
X129408714Y-93388571D01*
X130337285Y-93388571D01*
X132051571Y-91817142D02*
X130765857Y-93745714D01*
X132480142Y-92031428D02*
X132551571Y-91960000D01*
X132694428Y-91888571D01*
X133051571Y-91888571D01*
X133194428Y-91960000D01*
X133265857Y-92031428D01*
X133337285Y-92174285D01*
X133337285Y-92317142D01*
X133265857Y-92531428D01*
X132408714Y-93388571D01*
X133337285Y-93388571D01*
X134623000Y-92388571D02*
X134623000Y-93388571D01*
X134265857Y-91817142D02*
X133908714Y-92888571D01*
X134837285Y-92888571D01*
X135194428Y-91888571D02*
X135694428Y-93388571D01*
X136194428Y-91888571D01*
X133028142Y-83832000D02*
X132885285Y-83760571D01*
X132671000Y-83760571D01*
X132456714Y-83832000D01*
X132313857Y-83974857D01*
X132242428Y-84117714D01*
X132171000Y-84403428D01*
X132171000Y-84617714D01*
X132242428Y-84903428D01*
X132313857Y-85046285D01*
X132456714Y-85189142D01*
X132671000Y-85260571D01*
X132813857Y-85260571D01*
X133028142Y-85189142D01*
X133099571Y-85117714D01*
X133099571Y-84617714D01*
X132813857Y-84617714D01*
X133742428Y-85260571D02*
X133742428Y-83760571D01*
X134599571Y-85260571D01*
X134599571Y-83760571D01*
X135313857Y-85260571D02*
X135313857Y-83760571D01*
X135671000Y-83760571D01*
X135885285Y-83832000D01*
X136028142Y-83974857D01*
X136099571Y-84117714D01*
X136171000Y-84403428D01*
X136171000Y-84617714D01*
X136099571Y-84903428D01*
X136028142Y-85046285D01*
X135885285Y-85189142D01*
X135671000Y-85260571D01*
X135313857Y-85260571D01*
X142291857Y-98976571D02*
X142291857Y-97476571D01*
X142863285Y-97476571D02*
X143220428Y-98976571D01*
X143506142Y-97905142D01*
X143791857Y-98976571D01*
X144149000Y-97476571D01*
X144649000Y-98548000D02*
X145363285Y-98548000D01*
X144506142Y-98976571D02*
X145006142Y-97476571D01*
X145506142Y-98976571D01*
X145934714Y-98905142D02*
X146149000Y-98976571D01*
X146506142Y-98976571D01*
X146649000Y-98905142D01*
X146720428Y-98833714D01*
X146791857Y-98690857D01*
X146791857Y-98548000D01*
X146720428Y-98405142D01*
X146649000Y-98333714D01*
X146506142Y-98262285D01*
X146220428Y-98190857D01*
X146077571Y-98119428D01*
X146006142Y-98048000D01*
X145934714Y-97905142D01*
X145934714Y-97762285D01*
X146006142Y-97619428D01*
X146077571Y-97548000D01*
X146220428Y-97476571D01*
X146577571Y-97476571D01*
X146791857Y-97548000D01*
X147291857Y-97476571D02*
X148291857Y-97476571D01*
X147291857Y-98976571D01*
X148291857Y-98976571D01*
X149934714Y-97619428D02*
X150006142Y-97548000D01*
X150149000Y-97476571D01*
X150506142Y-97476571D01*
X150649000Y-97548000D01*
X150720428Y-97619428D01*
X150791857Y-97762285D01*
X150791857Y-97905142D01*
X150720428Y-98119428D01*
X149863285Y-98976571D01*
X150791857Y-98976571D01*
X151720428Y-97476571D02*
X151863285Y-97476571D01*
X152006142Y-97548000D01*
X152077571Y-97619428D01*
X152149000Y-97762285D01*
X152220428Y-98048000D01*
X152220428Y-98405142D01*
X152149000Y-98690857D01*
X152077571Y-98833714D01*
X152006142Y-98905142D01*
X151863285Y-98976571D01*
X151720428Y-98976571D01*
X151577571Y-98905142D01*
X151506142Y-98833714D01*
X151434714Y-98690857D01*
X151363285Y-98405142D01*
X151363285Y-98048000D01*
X151434714Y-97762285D01*
X151506142Y-97619428D01*
X151577571Y-97548000D01*
X151720428Y-97476571D01*
X153649000Y-98976571D02*
X152791857Y-98976571D01*
X153220428Y-98976571D02*
X153220428Y-97476571D01*
X153077571Y-97690857D01*
X152934714Y-97833714D01*
X152791857Y-97905142D01*
X154934714Y-97476571D02*
X154649000Y-97476571D01*
X154506142Y-97548000D01*
X154434714Y-97619428D01*
X154291857Y-97833714D01*
X154220428Y-98119428D01*
X154220428Y-98690857D01*
X154291857Y-98833714D01*
X154363285Y-98905142D01*
X154506142Y-98976571D01*
X154791857Y-98976571D01*
X154934714Y-98905142D01*
X155006142Y-98833714D01*
X155077571Y-98690857D01*
X155077571Y-98333714D01*
X155006142Y-98190857D01*
X154934714Y-98119428D01*
X154791857Y-98048000D01*
X154506142Y-98048000D01*
X154363285Y-98119428D01*
X154291857Y-98190857D01*
X154220428Y-98333714D01*
X144434428Y-86721142D02*
X145577285Y-86721142D01*
X145005857Y-87292571D02*
X145005857Y-86149714D01*
X147005857Y-85792571D02*
X146291571Y-85792571D01*
X146220142Y-86506857D01*
X146291571Y-86435428D01*
X146434428Y-86364000D01*
X146791571Y-86364000D01*
X146934428Y-86435428D01*
X147005857Y-86506857D01*
X147077285Y-86649714D01*
X147077285Y-87006857D01*
X147005857Y-87149714D01*
X146934428Y-87221142D01*
X146791571Y-87292571D01*
X146434428Y-87292571D01*
X146291571Y-87221142D01*
X146220142Y-87149714D01*
X147505857Y-85792571D02*
X148005857Y-87292571D01*
X148505857Y-85792571D01*
D12*
X137871200Y-108839000D02*
X139496800Y-108839000D01*
X139496800Y-106553000D02*
X137871200Y-106553000D01*
X139496800Y-106095800D02*
X137871200Y-106095800D01*
X137871200Y-106095800D02*
X137871200Y-109296200D01*
X137871200Y-109296200D02*
X139496800Y-109296200D01*
X139496800Y-109296200D02*
X139496800Y-106095800D01*
X136880600Y-106095800D02*
X134391400Y-106095800D01*
X134391400Y-109296200D02*
X136880600Y-109296200D01*
X136880600Y-108839000D02*
X134391400Y-108839000D01*
X134391400Y-106553000D02*
X136880600Y-106553000D01*
X134391400Y-106095800D02*
X134391400Y-109296200D01*
X136880600Y-109296200D02*
X136880600Y-106095800D01*
X140817600Y-108254800D02*
X141630400Y-108254800D01*
X141605000Y-107137200D02*
X140817600Y-107137200D01*
X141630400Y-106883200D02*
X141630400Y-108508800D01*
X141630400Y-108508800D02*
X140817600Y-108508800D01*
X140817600Y-108508800D02*
X140817600Y-106883200D01*
X140817600Y-106883200D02*
X141630400Y-106883200D01*
X145084800Y-111912400D02*
X145084800Y-111099600D01*
X143967200Y-111125000D02*
X143967200Y-111912400D01*
X143713200Y-111099600D02*
X145338800Y-111099600D01*
X145338800Y-111099600D02*
X145338800Y-111912400D01*
X145338800Y-111912400D02*
X143713200Y-111912400D01*
X143713200Y-111912400D02*
X143713200Y-111099600D01*
X154584400Y-114249200D02*
X153771600Y-114249200D01*
X153797000Y-115366800D02*
X154584400Y-115366800D01*
X153771600Y-115620800D02*
X153771600Y-113995200D01*
X153771600Y-113995200D02*
X154584400Y-113995200D01*
X154584400Y-113995200D02*
X154584400Y-115620800D01*
X154584400Y-115620800D02*
X153771600Y-115620800D01*
X141960600Y-81203800D02*
X139471400Y-81203800D01*
X139471400Y-84404200D02*
X141960600Y-84404200D01*
X141960600Y-83947000D02*
X139471400Y-83947000D01*
X139471400Y-81661000D02*
X141960600Y-81661000D01*
X139471400Y-81203800D02*
X139471400Y-84404200D01*
X141960600Y-84404200D02*
X141960600Y-81203800D01*
X153644600Y-81203800D02*
X151155400Y-81203800D01*
X151155400Y-84404200D02*
X153644600Y-84404200D01*
X153644600Y-83947000D02*
X151155400Y-83947000D01*
X151155400Y-81661000D02*
X153644600Y-81661000D01*
X151155400Y-81203800D02*
X151155400Y-84404200D01*
X153644600Y-84404200D02*
X153644600Y-81203800D01*
X141353540Y-98229420D02*
X138554460Y-98229420D01*
X138554460Y-98331020D02*
X141353540Y-98331020D01*
X141353540Y-98430080D02*
X138554460Y-98430080D01*
X138554460Y-98529140D02*
X141353540Y-98529140D01*
X138554460Y-98630740D02*
X141353540Y-98630740D01*
X138554460Y-98130360D02*
X138554460Y-102529640D01*
X138554460Y-102529640D02*
X141353540Y-102529640D01*
X141353540Y-102529640D02*
X141353540Y-98130360D01*
X141353540Y-98130360D02*
X138554460Y-98130360D01*
X133637020Y-98028760D02*
X137634980Y-98028760D01*
X137634980Y-98130360D02*
X133637020Y-98130360D01*
X133637020Y-98229420D02*
X137634980Y-98229420D01*
X137634980Y-98331020D02*
X133637020Y-98331020D01*
X133637020Y-98430080D02*
X137634980Y-98430080D01*
X133637020Y-98529140D02*
X137634980Y-98529140D01*
X133637020Y-97929700D02*
X137634980Y-97929700D01*
X137634980Y-97929700D02*
X137634980Y-102730300D01*
X137634980Y-102730300D02*
X133637020Y-102730300D01*
X133637020Y-102730300D02*
X133637020Y-97929700D01*
X132715000Y-101981000D02*
X129413000Y-101981000D01*
X132715000Y-98679000D02*
X129413000Y-98679000D01*
X132715000Y-98044000D02*
X129413000Y-98044000D01*
X129413000Y-98044000D02*
X129413000Y-102616000D01*
X129413000Y-102616000D02*
X132715000Y-102616000D01*
X132715000Y-102616000D02*
X132715000Y-98044000D01*
X143713200Y-118465600D02*
X143713200Y-119278400D01*
X144830800Y-119253000D02*
X144830800Y-118465600D01*
X145084800Y-119278400D02*
X143459200Y-119278400D01*
X143459200Y-119278400D02*
X143459200Y-118465600D01*
X143459200Y-118465600D02*
X145084800Y-118465600D01*
X145084800Y-118465600D02*
X145084800Y-119278400D01*
X158140400Y-114249200D02*
X157327600Y-114249200D01*
X157353000Y-115366800D02*
X158140400Y-115366800D01*
X157327600Y-115620800D02*
X157327600Y-113995200D01*
X157327600Y-113995200D02*
X158140400Y-113995200D01*
X158140400Y-113995200D02*
X158140400Y-115620800D01*
X158140400Y-115620800D02*
X157327600Y-115620800D01*
X155549600Y-115366800D02*
X156362400Y-115366800D01*
X156337000Y-114249200D02*
X155549600Y-114249200D01*
X156362400Y-113995200D02*
X156362400Y-115620800D01*
X156362400Y-115620800D02*
X155549600Y-115620800D01*
X155549600Y-115620800D02*
X155549600Y-113995200D01*
X155549600Y-113995200D02*
X156362400Y-113995200D01*
D13*
X146026843Y-113062000D02*
G75*
G03X146026843Y-113062000I-282843J0D01*
G01*
D14*
X160707400Y-109194600D02*
X154513000Y-109195000D01*
X154513000Y-109195000D02*
X154513000Y-102641000D01*
X154513000Y-102641000D02*
X160707400Y-102641400D01*
D10*
G36*
X153649400Y-105486200D02*
X153649400Y-106349800D01*
X154411400Y-106349800D01*
X154411400Y-105486200D01*
X153649400Y-105486200D01*
G37*
D13*
X154270095Y-110950380D02*
X154270095Y-109950380D01*
X154603428Y-110664666D01*
X154936761Y-109950380D01*
X154936761Y-110950380D01*
X155746285Y-110426571D02*
X155889142Y-110474190D01*
X155936761Y-110521809D01*
X155984380Y-110617047D01*
X155984380Y-110759904D01*
X155936761Y-110855142D01*
X155889142Y-110902761D01*
X155793904Y-110950380D01*
X155412952Y-110950380D01*
X155412952Y-109950380D01*
X155746285Y-109950380D01*
X155841523Y-109998000D01*
X155889142Y-110045619D01*
X155936761Y-110140857D01*
X155936761Y-110236095D01*
X155889142Y-110331333D01*
X155841523Y-110378952D01*
X155746285Y-110426571D01*
X155412952Y-110426571D01*
X156984380Y-110950380D02*
X156651047Y-110474190D01*
X156412952Y-110950380D02*
X156412952Y-109950380D01*
X156793904Y-109950380D01*
X156889142Y-109998000D01*
X156936761Y-110045619D01*
X156984380Y-110140857D01*
X156984380Y-110283714D01*
X156936761Y-110378952D01*
X156889142Y-110426571D01*
X156793904Y-110474190D01*
X156412952Y-110474190D01*
X157412952Y-110950380D02*
X157412952Y-109950380D01*
X157651047Y-109950380D01*
X157793904Y-109998000D01*
X157889142Y-110093238D01*
X157936761Y-110188476D01*
X157984380Y-110378952D01*
X157984380Y-110521809D01*
X157936761Y-110712285D01*
X157889142Y-110807523D01*
X157793904Y-110902761D01*
X157651047Y-110950380D01*
X157412952Y-110950380D01*
X158555809Y-110378952D02*
X158460571Y-110331333D01*
X158412952Y-110283714D01*
X158365333Y-110188476D01*
X158365333Y-110140857D01*
X158412952Y-110045619D01*
X158460571Y-109998000D01*
X158555809Y-109950380D01*
X158746285Y-109950380D01*
X158841523Y-109998000D01*
X158889142Y-110045619D01*
X158936761Y-110140857D01*
X158936761Y-110188476D01*
X158889142Y-110283714D01*
X158841523Y-110331333D01*
X158746285Y-110378952D01*
X158555809Y-110378952D01*
X158460571Y-110426571D01*
X158412952Y-110474190D01*
X158365333Y-110569428D01*
X158365333Y-110759904D01*
X158412952Y-110855142D01*
X158460571Y-110902761D01*
X158555809Y-110950380D01*
X158746285Y-110950380D01*
X158841523Y-110902761D01*
X158889142Y-110855142D01*
X158936761Y-110759904D01*
X158936761Y-110569428D01*
X158889142Y-110474190D01*
X158841523Y-110426571D01*
X158746285Y-110378952D01*
X159270095Y-109950380D02*
X159889142Y-109950380D01*
X159555809Y-110331333D01*
X159698666Y-110331333D01*
X159793904Y-110378952D01*
X159841523Y-110426571D01*
X159889142Y-110521809D01*
X159889142Y-110759904D01*
X159841523Y-110855142D01*
X159793904Y-110902761D01*
X159698666Y-110950380D01*
X159412952Y-110950380D01*
X159317714Y-110902761D01*
X159270095Y-110855142D01*
X160793904Y-109950380D02*
X160317714Y-109950380D01*
X160270095Y-110426571D01*
X160317714Y-110378952D01*
X160412952Y-110331333D01*
X160651047Y-110331333D01*
X160746285Y-110378952D01*
X160793904Y-110426571D01*
X160841523Y-110521809D01*
X160841523Y-110759904D01*
X160793904Y-110855142D01*
X160746285Y-110902761D01*
X160651047Y-110950380D01*
X160412952Y-110950380D01*
X160317714Y-110902761D01*
X160270095Y-110855142D01*
X161746285Y-110950380D02*
X161270095Y-110950380D01*
X161270095Y-109950380D01*
X161936761Y-109950380D02*
X162508190Y-109950380D01*
X162222476Y-110950380D02*
X162222476Y-109950380D01*
X163270095Y-110283714D02*
X163270095Y-110950380D01*
X163032000Y-109902761D02*
X162793904Y-110617047D01*
X163412952Y-110617047D01*
X164317714Y-109998000D02*
X164222476Y-109950380D01*
X164079619Y-109950380D01*
X163936761Y-109998000D01*
X163841523Y-110093238D01*
X163793904Y-110188476D01*
X163746285Y-110378952D01*
X163746285Y-110521809D01*
X163793904Y-110712285D01*
X163841523Y-110807523D01*
X163936761Y-110902761D01*
X164079619Y-110950380D01*
X164174857Y-110950380D01*
X164317714Y-110902761D01*
X164365333Y-110855142D01*
X164365333Y-110521809D01*
X164174857Y-110521809D01*
%LPC*%
D15*
X138684000Y-109093000D03*
X138684000Y-106299000D03*
D16*
X135636000Y-109093000D03*
X135636000Y-106299000D03*
D17*
X141224000Y-108447840D03*
X141224000Y-106944160D03*
D18*
X145277840Y-111506000D03*
X143774160Y-111506000D03*
D17*
X154178000Y-114056160D03*
X154178000Y-115559840D03*
D16*
X140716000Y-84201000D03*
X140716000Y-81407000D03*
X152400000Y-84201000D03*
X152400000Y-81407000D03*
D19*
X139954000Y-98600260D03*
X139954000Y-102059740D03*
D20*
X135636000Y-98320860D03*
X135636000Y-102339140D03*
D21*
X161060000Y-98472000D03*
X161060000Y-88622000D03*
D22*
X131064000Y-102379780D03*
X131064000Y-98280220D03*
D18*
X143520160Y-118872000D03*
X145023840Y-118872000D03*
D17*
X157734000Y-114056160D03*
X157734000Y-115559840D03*
X155956000Y-115559840D03*
X155956000Y-114056160D03*
D23*
X144479000Y-113122000D03*
X144479000Y-114392000D03*
X144479000Y-116932000D03*
X144479000Y-115662000D03*
X149609000Y-115662000D03*
X149609000Y-116932000D03*
X149609000Y-114392000D03*
X149609000Y-113122000D03*
D24*
X147044000Y-115062000D03*
D25*
X152932000Y-103638000D03*
X152932000Y-108198000D03*
D26*
X159068000Y-105918000D03*
D27*
X146304000Y-78994000D03*
X131064000Y-94996000D03*
X134874000Y-90424000D03*
X146304000Y-84328000D03*
X131064000Y-86360000D03*
M02*
