M48
INCH,TZ
T1C0.016
T2C0.032
T3C0.052
%
G90
G05
T1
X49800Y-37500
X49800Y-40000
X49900Y-35000
X49900Y-38600
X49900Y-41300
X49900Y-43300
X50000Y-35500
X50000Y-36600
X50200Y-42100
X50300Y-34700
X50400Y-35300
X50500Y-33900
X50600Y-43700
X51000Y-42900
X51300Y-34600
X52000Y-43700
X52000Y-44200
X52600Y-33700
X52700Y-32900
X52800Y-44400
X52900Y-45000
X53100Y-45800
X53200Y-32100
X53200Y-46800
X53400Y-31000
X53400Y-33300
X53600Y-45200
X53800Y-32700
X53800Y-46000
X53900Y-43800
X54000Y-31800
X54200Y-46800
X54300Y-30500
X54400Y-43800
X54400Y-44400
X54500Y-46100
X54600Y-37600
X54700Y-44700
X54900Y-44300
X55000Y-31400
X55000Y-43800
X55300Y-30600
X55300Y-37600
X55300Y-45000
X55300Y-46500
X55300Y-47200
X55400Y-43400
X55400Y-43800
X55400Y-44200
X55800Y-37200
X55900Y-40800
X55900Y-41500
X56000Y-31300
X56100Y-39400
X56100Y-40100
X56300Y-37800
X56300Y-38600
X56400Y-41000
X56400Y-41700
X56500Y-35900
X56600Y-37100
X56600Y-39100
X56600Y-39800
X56700Y-30700
X56700Y-34900
X56700Y-40300
X56800Y-38500
X56800Y-32000
X56900Y-36500
X57100Y-37800
X57300Y-39400
X57300Y-40100
X57300Y-40800
X57400Y-34600
X57500Y-36900
X57500Y-38900
X57800Y-40700
X57900Y-37700
X58000Y-40100
X58100Y-38400
X58100Y-39300
X58200Y-47100
X58300Y-37000
X58400Y-40800
X58500Y-34500
X58700Y-37700
X58700Y-38500
X58700Y-40200
X58900Y-34800
X59000Y-35400
X59000Y-36300
X59000Y-37100
X59000Y-39100
X59100Y-30600
X59200Y-37800
X59400Y-39700
X59400Y-47000
X59600Y-39000
X59800Y-38000
X59800Y-38500
X60000Y-37400
X60100Y-39600
X60300Y-30400
X60300Y-40100
X60300Y-47000
X60800Y-36800
X60800Y-39200
X61000Y-37600
X61000Y-38300
X61000Y-39800
X61200Y-31400
X61300Y-30700
X61300Y-47000
X61400Y-36900
X61500Y-40000
X61700Y-31700
X61700Y-38100
X61800Y-32700
X61800Y-39200
X61900Y-37400
X62000Y-36700
X62100Y-33900
X62100Y-36300
X62300Y-31100
X62300Y-33100
X62400Y-47200
X62700Y-37100
X62700Y-46400
X62800Y-32100
X62800Y-36200
X62900Y-37700
X63000Y-33900
X63100Y-45200
X63200Y-33000
X63600Y-36900
X63600Y-37800
X63700Y-33900
X63700Y-39900
X63900Y-44400
X64000Y-37400
X64000Y-42900
X64200Y-33500
X64400Y-42200
X64500Y-39900
X64500Y-40500
X64500Y-41400
X65100Y-43900
X65500Y-34100
X65600Y-43300
X65700Y-42500
X65800Y-34900
X65800Y-36400
X65800Y-37300
X65800Y-39100
X65800Y-39900
X65900Y-38500
X65900Y-41100
X66000Y-41800
T2
X52000Y-41800
X53400Y-37500
X54300Y-36700
X55800Y-45800
X57200Y-43100
X59800Y-44600
T3
X51600Y-34000
X51600Y-37400
X53100Y-35600
X57600Y-31100
X57600Y-33200
T0
M30
