  0
SECTION
  2
HEADER
  9
$ACADVER
  1
AC1014
  9
$HANDSEED
  5
FFFF
  9
$MEASUREMENT
 70
     1
  0
ENDSEC
  0
SECTION
  2
TABLES
  0
TABLE
  2
VPORT
  5
8
330
0
100
AcDbSymbolTable
 70
     4
  0
VPORT
  5
2E
330
8
100
AcDbSymbolTableRecord
100
AcDbViewportTableRecord
  2
*ACTIVE
 70
     0
 10
0.0
 20
0.0
 11
1.0
 21
1.0
 12
210.0
 22
148.5
 13
0.0
 23
0.0
 14
10.0
 24
10.0
 15
10.0
 25
10.0
 16
0.0
 26
0.0
 36
1.0
 17
0.0
 27
0.0
 37
0.0
 40
341.0
 41
1.24
 42
50.0
 43
0.0
 44
0.0
 50
0.0
 51
0.0
 71
     0
 72
   100
 73
     1
 74
     3
 75
     0
 76
     0
 77
     0
 78
     0
  0
ENDTAB
  0
TABLE
  2
LTYPE
  5
5
330
0
100
AcDbSymbolTable
 70
     1
  0
LTYPE
  5
14
330
5
100
AcDbSymbolTableRecord
100
AcDbLinetypeTableRecord
  2
BYBLOCK
 70
     0
  3

 72
    65
 73
     0
 40
0.0
  0
LTYPE
  5
15
330
5
100
AcDbSymbolTableRecord
100
AcDbLinetypeTableRecord
  2
BYLAYER
 70
     0
  3

 72
    65
 73
     0
 40
0.0
  0
LTYPE
  5
16
330
5
100
AcDbSymbolTableRecord
100
AcDbLinetypeTableRecord
  2
CONTINUOUS
 70
     0
  3
Solid line
 72
    65
 73
     0
 40
0.0
  0
ENDTAB
  0
TABLE
  2
LAYER
  5
2
100
AcDbSymbolTable
 70
2
  0
LAYER
  5
50
100
AcDbSymbolTableRecord
100
AcDbLayerTableRecord
  2
0
 70
0
  6
CONTINUOUS
  0
LAYER
  5
51
100
AcDbSymbolTableRecord
100
AcDbLayerTableRecord
  2
Layer_1
 70
0
  6
CONTINUOUS
  0
ENDTAB
  0
TABLE
  2
STYLE
  5
3
330
0
100
AcDbSymbolTable
 70
     1
  0
STYLE
  5
11
330
3
100
AcDbSymbolTableRecord
100
AcDbTextStyleTableRecord
  2
STANDARD
 70
     0
 40
0.0
 41
1.0
 50
0.0
 71
     0
 42
2.5
  3
txt
  4

  0
ENDTAB
  0
TABLE
  2
VIEW
  5
6
330
0
100
AcDbSymbolTable
 70
     0
  0
ENDTAB
  0
TABLE
  2
UCS
  5
7
330
0
100
AcDbSymbolTable
 70
     0
  0
ENDTAB
  0
TABLE
  2
APPID
  5
9
330
0
100
AcDbSymbolTable
 70
     2
  0
APPID
  5
12
330
9
100
AcDbSymbolTableRecord
100
AcDbRegAppTableRecord
  2
ACAD
 70
     0
  0
ENDTAB
  0
TABLE
  2
DIMSTYLE
  5
A
330
0
100
AcDbSymbolTable
 70
     1
  0
DIMSTYLE
105
27
330
A
100
AcDbSymbolTableRecord
100
AcDbDimStyleTableRecord
  2
ISO-25
 70
     0
  3

  4

  5

  6

  7

 40
1.0
 41
2.5
 42
0.625
 43
3.75
 44
1.25
 45
0.0
 46
0.0
 47
0.0
 48
0.0
140
2.5
141
2.5
142
0.0
143
0.03937007874016
144
1.0
145
0.0
146
1.0
147
0.625
 71
     0
 72
     0
 73
     0
 74
     0
 75
     0
 76
     0
 77
     1
 78
     8
170
     0
171
     3
172
     1
173
     0
174
     0
175
     0
176
     0
177
     0
178
     0
270
     2
271
     2
272
     2
273
     2
274
     3
340
11
275
     0
280
     0
281
     0
282
     0
283
     0
284
     8
285
     0
286
     0
287
     3
288
     0
  0
ENDTAB
  0
TABLE
  2
BLOCK_RECORD
  5
1
330
0
100
AcDbSymbolTable
 70
     1
  0
BLOCK_RECORD
  5
1F
330
1
100
AcDbSymbolTableRecord
100
AcDbBlockTableRecord
  2
*MODEL_SPACE
  0
BLOCK_RECORD
  5
1B
330
1
100
AcDbSymbolTableRecord
100
AcDbBlockTableRecord
  2
*PAPER_SPACE
  0
ENDTAB
  0
ENDSEC
  0
SECTION
  2
BLOCKS
  0
BLOCK
  5
20
330
1F
100
AcDbEntity
  8
0
100
AcDbBlockBegin
  2
*MODEL_SPACE
 70
     0
 10
0.0
 20
0.0
 30
0.0
  3
*MODEL_SPACE
  1

  0
ENDBLK
  5
21
330
1F
100
AcDbEntity
  8
0
100
AcDbBlockEnd
  0
BLOCK
  5
1C
330
1B
100
AcDbEntity
 67
     1
  8
0
100
AcDbBlockBegin
  2
*PAPER_SPACE
  1

  0
ENDBLK
  5
1D
330
1B
100
AcDbEntity
 67
     1
  8
0
100
AcDbBlockEnd
  0
ENDSEC
  0
SECTION
  2
ENTITIES
  0
LWPOLYLINE
  5
100
100
AcDbEntity
  8
Layer_1
 62
1
100
AcDbPolyline
 90
33
 70
1
 10
107.474204
 20
150.384734
 30
0.0
 10
107.443798
 20
150.083095
 30
0.0
 10
107.356585
 20
149.802149
 30
0.0
 10
107.218590
 20
149.547909
 30
0.0
 10
107.035829
 20
149.326401
 30
0.0
 10
106.814321
 20
149.143639
 30
0.0
 10
106.560081
 20
149.005644
 30
0.0
 10
106.279134
 20
148.918432
 30
0.0
 10
105.977495
 20
148.888025
 30
0.0
 10
105.675856
 20
148.918432
 30
0.0
 10
105.394910
 20
149.005644
 30
0.0
 10
105.140670
 20
149.143639
 30
0.0
 10
104.919162
 20
149.326401
 30
0.0
 10
104.736400
 20
149.547909
 30
0.0
 10
104.598405
 20
149.802149
 30
0.0
 10
104.511193
 20
150.083095
 30
0.0
 10
104.480786
 20
150.384734
 30
0.0
 10
104.511193
 20
150.686373
 30
0.0
 10
104.598405
 20
150.967320
 30
0.0
 10
104.736400
 20
151.221560
 30
0.0
 10
104.919162
 20
151.443068
 30
0.0
 10
105.140670
 20
151.625829
 30
0.0
 10
105.394910
 20
151.763824
 30
0.0
 10
105.675856
 20
151.851037
 30
0.0
 10
105.977495
 20
151.881443
 30
0.0
 10
106.279134
 20
151.851037
 30
0.0
 10
106.560081
 20
151.763824
 30
0.0
 10
106.814321
 20
151.625829
 30
0.0
 10
107.035829
 20
151.443068
 30
0.0
 10
107.218590
 20
151.221560
 30
0.0
 10
107.356585
 20
150.967320
 30
0.0
 10
107.443798
 20
150.686373
 30
0.0
 10
107.474204
 20
150.384734
 30
0.0
  0
LWPOLYLINE
  5
101
100
AcDbEntity
  8
Layer_1
 62
1
100
AcDbPolyline
 90
33
 70
1
 10
107.474204
 20
166.637712
 30
0.0
 10
107.443798
 20
166.336073
 30
0.0
 10
107.356585
 20
166.055126
 30
0.0
 10
107.218590
 20
165.800886
 30
0.0
 10
107.035829
 20
165.579378
 30
0.0
 10
106.814321
 20
165.396617
 30
0.0
 10
106.560081
 20
165.258622
 30
0.0
 10
106.279134
 20
165.171409
 30
0.0
 10
105.977495
 20
165.141003
 30
0.0
 10
105.675856
 20
165.171409
 30
0.0
 10
105.394910
 20
165.258622
 30
0.0
 10
105.140670
 20
165.396617
 30
0.0
 10
104.919162
 20
165.579378
 30
0.0
 10
104.736400
 20
165.800886
 30
0.0
 10
104.598405
 20
166.055126
 30
0.0
 10
104.511193
 20
166.336073
 30
0.0
 10
104.480786
 20
166.637712
 30
0.0
 10
104.511193
 20
166.939351
 30
0.0
 10
104.598405
 20
167.220300
 30
0.0
 10
104.736400
 20
167.474537
 30
0.0
 10
104.919162
 20
167.696048
 30
0.0
 10
105.140670
 20
167.878809
 30
0.0
 10
105.394907
 20
168.016805
 30
0.0
 10
105.675856
 20
168.104017
 30
0.0
 10
105.977495
 20
168.134424
 30
0.0
 10
106.279134
 20
168.104017
 30
0.0
 10
106.560084
 20
168.016805
 30
0.0
 10
106.814321
 20
167.878809
 30
0.0
 10
107.035829
 20
167.696048
 30
0.0
 10
107.218590
 20
167.474537
 30
0.0
 10
107.356585
 20
167.220300
 30
0.0
 10
107.443798
 20
166.939351
 30
0.0
 10
107.474204
 20
166.637712
 30
0.0
  0
LWPOLYLINE
  5
102
100
AcDbEntity
  8
Layer_1
 62
1
100
AcDbPolyline
 90
194
 70
1
 10
94.973431
 20
180.811634
 30
0.0
 10
94.847754
 20
180.783525
 30
0.0
 10
94.550648
 20
180.684857
 30
0.0
 10
94.264567
 20
180.556426
 30
0.0
 10
93.992268
 20
180.400431
 30
0.0
 10
93.737608
 20
180.218530
 30
0.0
 10
93.501687
 20
180.011272
 30
0.0
 10
93.288366
 20
179.781966
 30
0.0
 10
93.098747
 20
179.532267
 30
0.0
 10
92.934485
 20
179.265480
 30
0.0
 10
92.798336
 20
178.983258
 30
0.0
 10
92.690848
 20
178.688355
 30
0.0
 10
92.613127
 20
178.384636
 30
0.0
 10
92.601556
 20
178.308569
 30
0.0
 10
92.635733
 20
177.787671
 30
0.0
 10
92.599352
 20
177.216611
 30
0.0
 10
92.530828
 20
176.788745
 30
0.0
 10
92.427194
 20
176.374043
 30
0.0
 10
92.290036
 20
175.974074
 30
0.0
 10
92.120946
 20
175.590416
 30
0.0
 10
91.921511
 20
175.224642
 30
0.0
 10
91.693314
 20
174.878332
 30
0.0
 10
91.437951
 20
174.553060
 30
0.0
 10
91.157007
 20
174.250399
 30
0.0
 10
90.852072
 20
173.971928
 30
0.0
 10
90.524731
 20
173.719220
 30
0.0
 10
90.176576
 20
173.493852
 30
0.0
 10
89.809193
 20
173.297400
 30
0.0
 10
89.424171
 20
173.131436
 30
0.0
 10
89.023100
 20
172.997539
 30
0.0
 10
88.607564
 20
172.897282
 30
0.0
 10
88.179156
 20
172.832244
 30
0.0
 10
87.646682
 20
172.798070
 30
0.0
 10
87.074522
 20
172.835552
 30
0.0
 10
86.784584
 20
172.770508
 30
0.0
 10
86.486927
 20
172.671290
 30
0.0
 10
86.200846
 20
172.543409
 30
0.0
 10
85.929097
 20
172.387414
 30
0.0
 10
85.673884
 20
172.204963
 30
0.0
 10
85.438513
 20
171.998258
 30
0.0
 10
85.224643
 20
171.768952
 30
0.0
 10
85.035026
 20
171.519250
 30
0.0
 10
84.871314
 20
171.251910
 30
0.0
 10
84.734612
 20
170.969687
 30
0.0
 10
84.627125
 20
170.675341
 30
0.0
 10
84.572557
 20
170.460367
 30
0.0
 10
84.572557
 20
169.039332
 30
0.0
 10
84.572557
 20
148.027558
 30
0.0
 10
84.572557
 20
146.606524
 30
0.0
 10
84.601770
 20
146.476989
 30
0.0
 10
84.700437
 20
146.179332
 30
0.0
 10
84.828321
 20
145.893252
 30
0.0
 10
84.984313
 20
145.621503
 30
0.0
 10
85.166764
 20
145.366290
 30
0.0
 10
85.373472
 20
145.130922
 30
0.0
 10
85.602778
 20
144.917602
 30
0.0
 10
85.852477
 20
144.727432
 30
0.0
 10
86.119818
 20
144.563720
 30
0.0
 10
86.402040
 20
144.427571
 30
0.0
 10
86.696389
 20
144.320084
 30
0.0
 10
87.000108
 20
144.242362
 30
0.0
 10
87.062945
 20
144.232993
 30
0.0
 10
87.646682
 20
144.273782
 30
0.0
 10
88.212780
 20
144.237954
 30
0.0
 10
88.642148
 20
144.169504
 30
0.0
 10
89.058267
 20
144.065705
 30
0.0
 10
89.459551
 20
143.928162
 30
0.0
 10
89.844406
 20
143.758484
 30
0.0
 10
90.211247
 20
143.558273
 30
0.0
 10
90.558485
 20
143.329136
 30
0.0
 10
90.884533
 20
143.072678
 30
0.0
 10
91.187801
 20
142.790507
 30
0.0
 10
91.466698
 20
142.484228
 30
0.0
 10
91.719637
 20
142.155445
 30
0.0
 10
91.945031
 20
141.805766
 30
0.0
 10
92.141291
 20
141.436794
 30
0.0
 10
92.306829
 20
141.050138
 30
0.0
 10
92.440052
 20
140.647402
 30
0.0
 10
92.539374
 20
140.230192
 30
0.0
 10
92.603210
 20
139.800114
 30
0.0
 10
92.635733
 20
139.284184
 30
0.0
 10
92.597698
 20
138.704866
 30
0.0
 10
92.664946
 20
138.402775
 30
0.0
 10
92.764167
 20
138.105680
 30
0.0
 10
92.892047
 20
137.819591
 30
0.0
 10
93.048043
 20
137.547303
 30
0.0
 10
93.230494
 20
137.292654
 30
0.0
 10
93.437199
 20
137.057281
 30
0.0
 10
93.666505
 20
136.843413
 30
0.0
 10
93.916206
 20
136.653788
 30
0.0
 10
94.183544
 20
136.490071
 30
0.0
 10
94.465767
 20
136.353362
 30
0.0
 10
94.760116
 20
136.245892
 30
0.0
 10
94.900126
 20
136.210050
 30
0.0
 10
96.481011
 20
136.210050
 30
0.0
 10
115.462109
 20
136.210050
 30
0.0
 10
117.042994
 20
136.210050
 30
0.0
 10
117.087642
 20
136.219928
 30
0.0
 10
117.385298
 20
136.319157
 30
0.0
 10
117.671379
 20
136.447032
 30
0.0
 10
117.943128
 20
136.603016
 30
0.0
 10
118.197791
 20
136.785473
 30
0.0
 10
118.433709
 20
136.992172
 30
0.0
 10
118.647029
 20
137.221478
 30
0.0
 10
118.836649
 20
137.471188
 30
0.0
 10
119.000911
 20
137.738537
 30
0.0
 10
119.137060
 20
138.020759
 30
0.0
 10
119.244547
 20
138.315089
 30
0.0
 10
119.322269
 20
138.618816
 30
0.0
 10
119.335505
 20
138.708112
 30
0.0
 10
119.295816
 20
139.284127
 30
0.0
 10
119.327786
 20
139.824893
 30
0.0
 10
119.393219
 20
140.250419
 30
0.0
 10
119.493414
 20
140.663217
 30
0.0
 10
119.626823
 20
141.061721
 30
0.0
 10
119.791903
 20
141.444372
 30
0.0
 10
119.987114
 20
141.809604
 30
0.0
 10
120.210907
 20
142.155860
 30
0.0
 10
120.461741
 20
142.481569
 30
0.0
 10
120.738070
 20
142.785176
 30
0.0
 10
121.038352
 20
143.065115
 30
0.0
 10
121.361039
 20
143.319823
 30
0.0
 10
121.704594
 20
143.547740
 30
0.0
 10
122.067467
 20
143.747299
 30
0.0
 10
122.448117
 20
143.916943
 30
0.0
 10
122.845000
 20
144.055105
 30
0.0
 10
123.256571
 20
144.160227
 30
0.0
 10
123.681284
 20
144.230740
 30
0.0
 10
124.284867
 20
144.273737
 30
0.0
 10
124.828915
 20
144.240663
 30
0.0
 10
125.065937
 20
144.294130
 30
0.0
 10
125.363594
 20
144.392798
 30
0.0
 10
125.649674
 20
144.521232
 30
0.0
 10
125.921423
 20
144.677227
 30
0.0
 10
126.176636
 20
144.859128
 30
0.0
 10
126.412007
 20
145.066384
 30
0.0
 10
126.625878
 20
145.295689
 30
0.0
 10
126.815494
 20
145.544838
 30
0.0
 10
126.979206
 20
145.812178
 30
0.0
 10
127.115356
 20
146.094401
 30
0.0
 10
127.222843
 20
146.389300
 30
0.0
 10
127.258674
 20
146.529311
 30
0.0
 10
127.258674
 20
148.110746
 30
0.0
 10
127.258674
 20
168.962116
 30
0.0
 10
127.258674
 20
170.543554
 30
0.0
 10
127.248739
 20
170.587652
 30
0.0
 10
127.150072
 20
170.884755
 30
0.0
 10
127.022191
 20
171.170838
 30
0.0
 10
126.866196
 20
171.443138
 30
0.0
 10
126.683745
 20
171.697798
 30
0.0
 10
126.476486
 20
171.933719
 30
0.0
 10
126.247181
 20
172.147039
 30
0.0
 10
125.998032
 20
172.336659
 30
0.0
 10
125.730691
 20
172.500921
 30
0.0
 10
125.448469
 20
172.637070
 30
0.0
 10
125.154120
 20
172.744557
 30
0.0
 10
124.850401
 20
172.822279
 30
0.0
 10
124.793076
 20
172.831084
 30
0.0
 10
124.284856
 20
172.798010
 30
0.0
 10
123.690645
 20
172.838250
 30
0.0
 10
123.267157
 20
172.908015
 30
0.0
 10
122.856665
 20
173.012200
 30
0.0
 10
122.460707
 20
173.149259
 30
0.0
 10
122.080819
 20
173.317644
 30
0.0
 10
121.718536
 20
173.515814
 30
0.0
 10
121.375390
 20
173.742227
 30
0.0
 10
121.052923
 20
173.995335
 30
0.0
 10
120.752664
 20
174.273598
 30
0.0
 10
120.476148
 20
174.575466
 30
0.0
 10
120.224917
 20
174.899398
 30
0.0
 10
120.000499
 20
175.243850
 30
0.0
 10
119.804434
 20
175.607279
 30
0.0
 10
119.638256
 20
175.988137
 30
0.0
 10
119.503498
 20
176.384883
 30
0.0
 10
119.401697
 20
176.795973
 30
0.0
 10
119.334390
 20
177.219860
 30
0.0
 10
119.295805
 20
177.787612
 30
0.0
 10
119.329429
 20
178.336621
 30
0.0
 10
119.270450
 20
178.600654
 30
0.0
 10
119.171782
 20
178.898311
 30
0.0
 10
119.043348
 20
179.184392
 30
0.0
 10
118.887356
 20
179.456141
 30
0.0
 10
118.704902
 20
179.710801
 30
0.0
 10
118.498197
 20
179.946722
 30
0.0
 10
118.268891
 20
180.160042
 30
0.0
 10
118.019189
 20
180.350212
 30
0.0
 10
117.752402
 20
180.513921
 30
0.0
 10
117.469629
 20
180.650073
 30
0.0
 10
117.175280
 20
180.757560
 30
0.0
 10
116.964164
 20
180.811578
 30
0.0
 10
115.535414
 20
180.811578
 30
0.0
 10
96.402181
 20
180.811578
 30
0.0
 10
94.973431
 20
180.811578
 30
0.0
 10
94.973431
 20
180.811634
 30
0.0
  0
ENDSEC
  0
SECTION
  2
OBJECTS
  0
DICTIONARY
  5
C
330
0
100
AcDbDictionary
  3
ACAD_GROUP
350
D
  3
ACAD_MLINESTYLE
350
17
  0
DICTIONARY
  5
D
330
C
100
AcDbDictionary
  0
DICTIONARY
  5
1A
330
C
100
AcDbDictionary
  0
DICTIONARY
  5
17
330
C
100
AcDbDictionary
  3
STANDARD
350
18
  0
DICTIONARY
  5
19
330
C
100
AcDbDictionary
  0
ENDSEC
  0
EOF
