<?xml version="1.0" encoding="UTF-8" standalone="no"?>
<!-- Created with Inkscape (http://www.inkscape.org/) -->

<svg
   xmlns:dc="http://purl.org/dc/elements/1.1/"
   xmlns:cc="http://creativecommons.org/ns#"
   xmlns:rdf="http://www.w3.org/1999/02/22-rdf-syntax-ns#"
   xmlns:svg="http://www.w3.org/2000/svg"
   xmlns="http://www.w3.org/2000/svg"
   xmlns:sodipodi="http://sodipodi.sourceforge.net/DTD/sodipodi-0.dtd"
   xmlns:inkscape="http://www.inkscape.org/namespaces/inkscape"
   width="210mm"
   height="297mm"
   viewBox="0 0 744.09448819 1052.3622047"
   id="svg2"
   version="1.1"
   inkscape:version="0.91 r13725"
   sodipodi:docname="board-outline.svg">
  <defs
     id="defs4" />
  <sodipodi:namedview
     id="base"
     pagecolor="#ffffff"
     bordercolor="#666666"
     borderopacity="1.0"
     inkscape:pageopacity="0.0"
     inkscape:pageshadow="2"
     inkscape:zoom="5.6"
     inkscape:cx="351.89241"
     inkscape:cy="550.72768"
     inkscape:document-units="px"
     inkscape:current-layer="layer1"
     showgrid="false"
     inkscape:window-width="1920"
     inkscape:window-height="1176"
     inkscape:window-x="0"
     inkscape:window-y="24"
     inkscape:window-maximized="1" />
  <metadata
     id="metadata7">
    <rdf:RDF>
      <cc:Work
         rdf:about="">
        <dc:format>image/svg+xml</dc:format>
        <dc:type
           rdf:resource="http://purl.org/dc/dcmitype/StillImage" />
        <dc:title></dc:title>
      </cc:Work>
    </rdf:RDF>
  </metadata>
  <g
     inkscape:label="Layer 1"
     inkscape:groupmode="layer"
     id="layer1">
    <g
       id="g5059"
       transform="translate(-207.47717,-444.06313)">
      <path
         id="circle5057"
         style="fill:none;fill-opacity:1;stroke:#ff0000;stroke-width:0.1;stroke-linejoin:miter;stroke-miterlimit:4;stroke-dasharray:none;stroke-opacity:1"
         d="m 588.29128,963.56604 -0.10774,1.0688 -0.30902,0.99548 -0.48896,0.90085 -0.64758,0.78487 -0.78487,0.64758 -0.90085,0.48896 -0.99548,0.30902 -1.0688,0.10774 -1.0688,-0.10774 -0.99548,-0.30902 -0.90085,-0.48896 -0.78487,-0.64758 -0.64758,-0.78487 -0.48896,-0.90085 -0.30902,-0.99548 -0.10774,-1.0688 0.10774,-1.0688 0.30902,-0.99548 0.48896,-0.90085 0.64758,-0.78487 0.78487,-0.64758 0.90085,-0.48896 0.99548,-0.30902 1.0688,-0.10774 1.0688,0.10774 0.99548,0.30902 0.90085,0.48896 0.78487,0.64758 0.64758,0.78487 0.48896,0.90085 0.30902,0.99548 z m 0,-57.58929 -0.10774,1.0688 -0.30902,0.99548 -0.48896,0.90085 -0.64758,0.78487 -0.78487,0.64758 -0.90085,0.48896 -0.99548,0.30902 -1.0688,0.10774 -1.0688,-0.10774 -0.99548,-0.30902 -0.90085,-0.48896 -0.78487,-0.64758 -0.64758,-0.78487 -0.48896,-0.90085 -0.30902,-0.99548 -0.10774,-1.0688 0.10774,-1.0688 0.30902,-0.99549 0.48896,-0.90084 0.64758,-0.78488 0.78487,-0.64758 0.90084,-0.48896 0.99549,-0.30902 1.0688,-0.10774 1.0688,0.10774 0.99549,0.30902 0.90084,0.48896 0.78487,0.64758 0.64758,0.78488 0.48896,0.90084 0.30902,0.99549 z m -44.29408,-50.22256 -0.44531,0.0996 -1.05274,0.34961 -1.01367,0.45507 -0.96484,0.55274 -0.90234,0.64453 -0.83594,0.73438 -0.75586,0.8125 -0.67188,0.88476 -0.58203,0.94531 -0.48242,1 -0.38086,1.04493 -0.27539,1.07617 -0.041,0.26953 0.1211,1.8457 -0.12891,2.02344 -0.2428,1.51606 -0.36721,1.46942 -0.48599,1.41721 -0.59914,1.35942 -0.70666,1.29605 -0.80857,1.22708 -0.90483,1.15254 -0.99547,1.07242 -1.08048,0.98671 -1.15987,0.89542 -1.23362,0.79855 -1.30175,0.69609 -1.36425,0.58806 -1.42112,0.47444 -1.47237,0.35524 -1.51798,0.23045 -1.88672,0.12109 -2.02734,-0.13281 -1.02734,0.23047 -1.05469,0.35156 -1.01367,0.45312 -0.96289,0.55274 -0.9043,0.64648 -0.83399,0.73242 -0.75781,0.8125 -0.67187,0.88477 -0.58008,0.94727 -0.48438,1 -0.38086,1.04296 -0.19335,0.76172 0,5.03516 0,74.45117 0,5.03516 0.10351,0.45898 0.34961,1.05469 0.45313,1.01367 0.55273,0.96289 0.64648,0.9043 0.73243,0.83398 0.8125,0.75586 0.88476,0.67383 0.94727,0.58008 1,0.48242 1.04297,0.38086 1.07617,0.27539 0.22265,0.0332 2.06836,-0.14453 2.00586,0.12695 1.52138,0.24254 1.47444,0.36779 1.42187,0.48736 1.36366,0.60122 1.29983,0.70941 1.23037,0.8119 1.15529,0.90871 1.07457,0.99982 0.98822,1.08524 0.89624,1.16498 0.79864,1.23902 0.69541,1.30738 0.58655,1.37004 0.47205,1.42702 0.35193,1.4783 0.22619,1.5239 0.11524,1.8281 -0.13477,2.0527 0.23828,1.0704 0.35157,1.0527 0.45312,1.0137 0.55274,0.9648 0.64648,0.9023 0.73242,0.834 0.8125,0.7578 0.88477,0.6719 0.94726,0.5801 1,0.4844 1.04297,0.3808 0.4961,0.127 5.60156,0 67.25586,0 5.60156,0 0.1582,-0.035 1.05469,-0.3516 1.01367,-0.4531 0.96289,-0.5527 0.90235,-0.6465 0.83593,-0.7324 0.75586,-0.8125 0.67188,-0.8848 0.58203,-0.9473 0.48242,-1 0.38086,-1.0429 0.27539,-1.0762 0.0469,-0.3164 -0.14063,-2.041 0.11328,-1.9161 0.23185,-1.50777 0.35502,-1.46267 0.47271,-1.41202 0.58493,-1.35585 0.69169,-1.29413 0.79297,-1.22689 0.88878,-1.15409 0.97912,-1.07577 1.06399,-0.99191 1.14338,-0.90251 1.21732,-0.80758 1.28577,-0.7071 1.34876,-0.6011 1.40628,-0.48955 1.45832,-0.37248 1.50489,-0.24985 2.13868,-0.15235 1.92773,0.11719 0.83984,-0.18945 1.05469,-0.34961 1.01367,-0.45508 0.96289,-0.55274 0.9043,-0.64453 0.83399,-0.73437 0.75781,-0.8125 0.67187,-0.88281 0.58008,-0.94727 0.48242,-1 0.38086,-1.04492 0.12696,-0.4961 0,-5.60351 0,-73.88281 0,-5.60352 -0.0352,-0.15625 -0.34961,-1.05273 -0.45312,-1.01368 -0.55274,-0.96484 -0.64648,-0.90234 -0.73438,-0.83594 -0.8125,-0.75586 -0.88281,-0.67188 -0.94727,-0.58203 -1,-0.48242 -1.04297,-0.38086 -1.07617,-0.27539 -0.20312,-0.0312 -1.80078,0.11719 -2.10547,-0.14258 -1.50055,-0.2472 -1.4545,-0.36916 -1.403,-0.48564 -1.34606,-0.59664 -1.28368,-0.70218 -1.21587,-0.80225 -1.1426,-0.89684 -1.06391,-0.98597 -0.97978,-1.06961 -0.89019,-1.14779 -0.79518,-1.2205 -0.69472,-1.28774 -0.58882,-1.3495 -0.47749,-1.40579 -0.36071,-1.45662 -0.23849,-1.50196 -0.13672,-2.01172 0.11914,-1.94531 -0.20898,-0.93555 -0.34961,-1.05469 -0.45508,-1.01367 -0.55273,-0.96289 -0.64649,-0.90234 -0.73242,-0.83594 -0.8125,-0.75586 -0.88477,-0.67383 -0.94531,-0.58007 -1.00195,-0.48243 -1.04297,-0.38086 -0.74805,-0.1914 -5.0625,0 -67.79492,0 -5.0625,0 z"
         inkscape:connector-curvature="0"
         sodipodi:nodetypes="cccccccccccccccccccccccccccccccccccccccccccccccccccccccccccccccccccccccccccccccccccccccccccccccccccccccccccccccccccccccccccccccccccccccccccccccccccccccccccccccccccccccccccccccccccccccccccccccccccccccccccccccccccccccccccccccccccccccccccccccccccccccccccccccccccc" />
    </g>
  </g>
</svg>
