%TF.GenerationSoftware,KiCad,Pcbnew,0.201604071231+6672~43~ubuntu15.10.1-product*%
%TF.CreationDate,2016-04-11T15:25:12+02:00*%
%TF.ProjectId,connector,636F6E6E6563746F722E6B696361645F,rev?*%
%TF.FileFunction,Copper,L2,Bot,Signal*%
%FSLAX46Y46*%
G04 Gerber Fmt 4.6, Leading zero omitted, Abs format (unit mm)*
G04 Created by KiCad (PCBNEW 0.201604071231+6672~43~ubuntu15.10.1-product) date pon, 11 kwi 2016, 15:25:12*
%MOMM*%
G01*
G04 APERTURE LIST*
%ADD10C,0.100000*%
%ADD11C,1.524000*%
%ADD12C,4.000000*%
%ADD13C,2.540000*%
%ADD14C,0.600000*%
%ADD15C,0.250000*%
%ADD16C,1.625600*%
%ADD17C,0.254000*%
G04 APERTURE END LIST*
D10*
D11*
X174244000Y-109530000D03*
X174244000Y-116530000D03*
X174244000Y-112030000D03*
X174244000Y-114030000D03*
X171624000Y-109530000D03*
X171624000Y-116530000D03*
X171624000Y-112030000D03*
X171624000Y-114030000D03*
D12*
X168914000Y-106460000D03*
X168914000Y-119600000D03*
D13*
X185420000Y-119380000D03*
X185420000Y-106680000D03*
D14*
X183642004Y-117856000D03*
X183134000Y-112522000D03*
X185166000Y-113030000D03*
X177292000Y-117856000D03*
X176022000Y-118110000D03*
X174752000Y-118110000D03*
X173482000Y-118110000D03*
X172212000Y-118110000D03*
X178308000Y-117602000D03*
X179832000Y-113030000D03*
X178816000Y-109728000D03*
X178562000Y-106426000D03*
D15*
X183134000Y-112522000D02*
X183134000Y-117347996D01*
X183134000Y-117347996D02*
X183642004Y-117856000D01*
D16*
X175824000Y-107950000D02*
X183134000Y-107950000D01*
X183134000Y-107950000D02*
X184150000Y-107950000D01*
D15*
X183134000Y-112522000D02*
X183134000Y-107950000D01*
D16*
X174244000Y-109530000D02*
X175824000Y-107950000D01*
X184150000Y-107950000D02*
X185420000Y-106680000D01*
D15*
X177292000Y-117856000D02*
X178054000Y-117856000D01*
X178054000Y-117856000D02*
X178308000Y-117602000D01*
X174752000Y-118110000D02*
X176022000Y-118110000D01*
X172212000Y-118110000D02*
X173482000Y-118110000D01*
X179832000Y-113030000D02*
X179832000Y-116078000D01*
X179832000Y-116078000D02*
X178308000Y-117602000D01*
X171624000Y-112030000D02*
X172711001Y-110942999D01*
X172711001Y-110942999D02*
X177601001Y-110942999D01*
X177601001Y-110942999D02*
X178816000Y-109728000D01*
X171624000Y-114030000D02*
X170434000Y-112840000D01*
X175514000Y-106426000D02*
X178562000Y-106426000D01*
X170434000Y-112840000D02*
X170434000Y-111506000D01*
X170434000Y-111506000D02*
X171196000Y-110744000D01*
X171196000Y-110744000D02*
X172273590Y-110744000D01*
X172273590Y-110744000D02*
X172974000Y-110043590D01*
X172974000Y-110043590D02*
X172974000Y-108966000D01*
X172974000Y-108966000D02*
X175514000Y-106426000D01*
D17*
G36*
X166681458Y-104965443D02*
X166279458Y-105933567D01*
X166278543Y-106981834D01*
X166678853Y-107950658D01*
X167419443Y-108692542D01*
X168387567Y-109094542D01*
X169435834Y-109095457D01*
X170404658Y-108695147D01*
X171146542Y-107954557D01*
X171548542Y-106986433D01*
X171549457Y-105938166D01*
X171149147Y-104969342D01*
X171030013Y-104850000D01*
X184860422Y-104850000D01*
X184342314Y-105064078D01*
X183805961Y-105599495D01*
X183515332Y-106299410D01*
X183515155Y-106502200D01*
X179496934Y-106502200D01*
X179497162Y-106240833D01*
X179355117Y-105897057D01*
X179092327Y-105633808D01*
X178748799Y-105491162D01*
X178376833Y-105490838D01*
X178033057Y-105632883D01*
X177999882Y-105666000D01*
X175514000Y-105666000D01*
X175271414Y-105714254D01*
X175223160Y-105723852D01*
X174976599Y-105888599D01*
X172467554Y-108397644D01*
X172416370Y-108346371D01*
X171903100Y-108133243D01*
X171347339Y-108132758D01*
X170833697Y-108344990D01*
X170440371Y-108737630D01*
X170227243Y-109250900D01*
X170226758Y-109806661D01*
X170438990Y-110320303D01*
X170491896Y-110373302D01*
X169896599Y-110968599D01*
X169731852Y-111215161D01*
X169674000Y-111506000D01*
X169674000Y-112840000D01*
X169731852Y-113130839D01*
X169896599Y-113377401D01*
X170239817Y-113720619D01*
X170227243Y-113750900D01*
X170226758Y-114306661D01*
X170438990Y-114820303D01*
X170831630Y-115213629D01*
X170975503Y-115273370D01*
X170892857Y-115307603D01*
X170823392Y-115549787D01*
X171624000Y-116350395D01*
X172424608Y-115549787D01*
X172355143Y-115307603D01*
X172266633Y-115276026D01*
X172414303Y-115215010D01*
X172807629Y-114822370D01*
X172934048Y-114517919D01*
X173058990Y-114820303D01*
X173451630Y-115213629D01*
X173595503Y-115273370D01*
X173512857Y-115307603D01*
X173443392Y-115549787D01*
X174244000Y-116350395D01*
X175044608Y-115549787D01*
X174975143Y-115307603D01*
X174886633Y-115276026D01*
X175034303Y-115215010D01*
X175427629Y-114822370D01*
X175640757Y-114309100D01*
X175641242Y-113753339D01*
X175429010Y-113239697D01*
X175219658Y-113029979D01*
X175427629Y-112822370D01*
X175640757Y-112309100D01*
X175641242Y-111753339D01*
X175620442Y-111702999D01*
X177601001Y-111702999D01*
X177891840Y-111645147D01*
X178138402Y-111480400D01*
X178955680Y-110663122D01*
X179001167Y-110663162D01*
X179344943Y-110521117D01*
X179608192Y-110258327D01*
X179750838Y-109914799D01*
X179751162Y-109542833D01*
X179691236Y-109397800D01*
X182374000Y-109397800D01*
X182374000Y-111959537D01*
X182341808Y-111991673D01*
X182199162Y-112335201D01*
X182198838Y-112707167D01*
X182340883Y-113050943D01*
X182374000Y-113084118D01*
X182374000Y-117347996D01*
X182431852Y-117638835D01*
X182596599Y-117885397D01*
X182706882Y-117995680D01*
X182706842Y-118041167D01*
X182848887Y-118384943D01*
X183111677Y-118648192D01*
X183455205Y-118790838D01*
X183605575Y-118790969D01*
X183505739Y-119051036D01*
X183525564Y-119808632D01*
X183777343Y-120416480D01*
X184072223Y-120548172D01*
X185240395Y-119380000D01*
X185226253Y-119365858D01*
X185405858Y-119186253D01*
X185420000Y-119200395D01*
X185434143Y-119186253D01*
X185613748Y-119365858D01*
X185599605Y-119380000D01*
X185613748Y-119394143D01*
X185434143Y-119573748D01*
X185420000Y-119559605D01*
X184251828Y-120727777D01*
X184383520Y-121022657D01*
X184871540Y-121210000D01*
X171030897Y-121210000D01*
X171146542Y-121094557D01*
X171548542Y-120126433D01*
X171549457Y-119078166D01*
X171149147Y-118109342D01*
X170551064Y-117510213D01*
X170823392Y-117510213D01*
X170892857Y-117752397D01*
X171416302Y-117939144D01*
X171971368Y-117911362D01*
X172355143Y-117752397D01*
X172424608Y-117510213D01*
X173443392Y-117510213D01*
X173512857Y-117752397D01*
X174036302Y-117939144D01*
X174591368Y-117911362D01*
X174975143Y-117752397D01*
X175044608Y-117510213D01*
X174244000Y-116709605D01*
X173443392Y-117510213D01*
X172424608Y-117510213D01*
X171624000Y-116709605D01*
X170823392Y-117510213D01*
X170551064Y-117510213D01*
X170408557Y-117367458D01*
X169440433Y-116965458D01*
X168392166Y-116964543D01*
X167423342Y-117364853D01*
X166681458Y-118105443D01*
X166279458Y-119073567D01*
X166278543Y-120121834D01*
X166678853Y-121090658D01*
X166797987Y-121210000D01*
X165810000Y-121210000D01*
X165810000Y-116322302D01*
X170214856Y-116322302D01*
X170242638Y-116877368D01*
X170401603Y-117261143D01*
X170643787Y-117330608D01*
X171444395Y-116530000D01*
X171803605Y-116530000D01*
X172604213Y-117330608D01*
X172846397Y-117261143D01*
X172927472Y-117033892D01*
X173021603Y-117261143D01*
X173263787Y-117330608D01*
X174064395Y-116530000D01*
X174423605Y-116530000D01*
X175224213Y-117330608D01*
X175466397Y-117261143D01*
X175653144Y-116737698D01*
X175625362Y-116182632D01*
X175466397Y-115798857D01*
X175224213Y-115729392D01*
X174423605Y-116530000D01*
X174064395Y-116530000D01*
X173263787Y-115729392D01*
X173021603Y-115798857D01*
X172940528Y-116026108D01*
X172846397Y-115798857D01*
X172604213Y-115729392D01*
X171803605Y-116530000D01*
X171444395Y-116530000D01*
X170643787Y-115729392D01*
X170401603Y-115798857D01*
X170214856Y-116322302D01*
X165810000Y-116322302D01*
X165810000Y-104850000D01*
X166797103Y-104850000D01*
X166681458Y-104965443D01*
X166681458Y-104965443D01*
G37*
X166681458Y-104965443D02*
X166279458Y-105933567D01*
X166278543Y-106981834D01*
X166678853Y-107950658D01*
X167419443Y-108692542D01*
X168387567Y-109094542D01*
X169435834Y-109095457D01*
X170404658Y-108695147D01*
X171146542Y-107954557D01*
X171548542Y-106986433D01*
X171549457Y-105938166D01*
X171149147Y-104969342D01*
X171030013Y-104850000D01*
X184860422Y-104850000D01*
X184342314Y-105064078D01*
X183805961Y-105599495D01*
X183515332Y-106299410D01*
X183515155Y-106502200D01*
X179496934Y-106502200D01*
X179497162Y-106240833D01*
X179355117Y-105897057D01*
X179092327Y-105633808D01*
X178748799Y-105491162D01*
X178376833Y-105490838D01*
X178033057Y-105632883D01*
X177999882Y-105666000D01*
X175514000Y-105666000D01*
X175271414Y-105714254D01*
X175223160Y-105723852D01*
X174976599Y-105888599D01*
X172467554Y-108397644D01*
X172416370Y-108346371D01*
X171903100Y-108133243D01*
X171347339Y-108132758D01*
X170833697Y-108344990D01*
X170440371Y-108737630D01*
X170227243Y-109250900D01*
X170226758Y-109806661D01*
X170438990Y-110320303D01*
X170491896Y-110373302D01*
X169896599Y-110968599D01*
X169731852Y-111215161D01*
X169674000Y-111506000D01*
X169674000Y-112840000D01*
X169731852Y-113130839D01*
X169896599Y-113377401D01*
X170239817Y-113720619D01*
X170227243Y-113750900D01*
X170226758Y-114306661D01*
X170438990Y-114820303D01*
X170831630Y-115213629D01*
X170975503Y-115273370D01*
X170892857Y-115307603D01*
X170823392Y-115549787D01*
X171624000Y-116350395D01*
X172424608Y-115549787D01*
X172355143Y-115307603D01*
X172266633Y-115276026D01*
X172414303Y-115215010D01*
X172807629Y-114822370D01*
X172934048Y-114517919D01*
X173058990Y-114820303D01*
X173451630Y-115213629D01*
X173595503Y-115273370D01*
X173512857Y-115307603D01*
X173443392Y-115549787D01*
X174244000Y-116350395D01*
X175044608Y-115549787D01*
X174975143Y-115307603D01*
X174886633Y-115276026D01*
X175034303Y-115215010D01*
X175427629Y-114822370D01*
X175640757Y-114309100D01*
X175641242Y-113753339D01*
X175429010Y-113239697D01*
X175219658Y-113029979D01*
X175427629Y-112822370D01*
X175640757Y-112309100D01*
X175641242Y-111753339D01*
X175620442Y-111702999D01*
X177601001Y-111702999D01*
X177891840Y-111645147D01*
X178138402Y-111480400D01*
X178955680Y-110663122D01*
X179001167Y-110663162D01*
X179344943Y-110521117D01*
X179608192Y-110258327D01*
X179750838Y-109914799D01*
X179751162Y-109542833D01*
X179691236Y-109397800D01*
X182374000Y-109397800D01*
X182374000Y-111959537D01*
X182341808Y-111991673D01*
X182199162Y-112335201D01*
X182198838Y-112707167D01*
X182340883Y-113050943D01*
X182374000Y-113084118D01*
X182374000Y-117347996D01*
X182431852Y-117638835D01*
X182596599Y-117885397D01*
X182706882Y-117995680D01*
X182706842Y-118041167D01*
X182848887Y-118384943D01*
X183111677Y-118648192D01*
X183455205Y-118790838D01*
X183605575Y-118790969D01*
X183505739Y-119051036D01*
X183525564Y-119808632D01*
X183777343Y-120416480D01*
X184072223Y-120548172D01*
X185240395Y-119380000D01*
X185226253Y-119365858D01*
X185405858Y-119186253D01*
X185420000Y-119200395D01*
X185434143Y-119186253D01*
X185613748Y-119365858D01*
X185599605Y-119380000D01*
X185613748Y-119394143D01*
X185434143Y-119573748D01*
X185420000Y-119559605D01*
X184251828Y-120727777D01*
X184383520Y-121022657D01*
X184871540Y-121210000D01*
X171030897Y-121210000D01*
X171146542Y-121094557D01*
X171548542Y-120126433D01*
X171549457Y-119078166D01*
X171149147Y-118109342D01*
X170551064Y-117510213D01*
X170823392Y-117510213D01*
X170892857Y-117752397D01*
X171416302Y-117939144D01*
X171971368Y-117911362D01*
X172355143Y-117752397D01*
X172424608Y-117510213D01*
X173443392Y-117510213D01*
X173512857Y-117752397D01*
X174036302Y-117939144D01*
X174591368Y-117911362D01*
X174975143Y-117752397D01*
X175044608Y-117510213D01*
X174244000Y-116709605D01*
X173443392Y-117510213D01*
X172424608Y-117510213D01*
X171624000Y-116709605D01*
X170823392Y-117510213D01*
X170551064Y-117510213D01*
X170408557Y-117367458D01*
X169440433Y-116965458D01*
X168392166Y-116964543D01*
X167423342Y-117364853D01*
X166681458Y-118105443D01*
X166279458Y-119073567D01*
X166278543Y-120121834D01*
X166678853Y-121090658D01*
X166797987Y-121210000D01*
X165810000Y-121210000D01*
X165810000Y-116322302D01*
X170214856Y-116322302D01*
X170242638Y-116877368D01*
X170401603Y-117261143D01*
X170643787Y-117330608D01*
X171444395Y-116530000D01*
X171803605Y-116530000D01*
X172604213Y-117330608D01*
X172846397Y-117261143D01*
X172927472Y-117033892D01*
X173021603Y-117261143D01*
X173263787Y-117330608D01*
X174064395Y-116530000D01*
X174423605Y-116530000D01*
X175224213Y-117330608D01*
X175466397Y-117261143D01*
X175653144Y-116737698D01*
X175625362Y-116182632D01*
X175466397Y-115798857D01*
X175224213Y-115729392D01*
X174423605Y-116530000D01*
X174064395Y-116530000D01*
X173263787Y-115729392D01*
X173021603Y-115798857D01*
X172940528Y-116026108D01*
X172846397Y-115798857D01*
X172604213Y-115729392D01*
X171803605Y-116530000D01*
X171444395Y-116530000D01*
X170643787Y-115729392D01*
X170401603Y-115798857D01*
X170214856Y-116322302D01*
X165810000Y-116322302D01*
X165810000Y-104850000D01*
X166797103Y-104850000D01*
X166681458Y-104965443D01*
G36*
X186615000Y-118005392D02*
X186588171Y-118032221D01*
X186456480Y-117737343D01*
X185748964Y-117465739D01*
X184991368Y-117485564D01*
X184572332Y-117659134D01*
X184435121Y-117327057D01*
X184172331Y-117063808D01*
X183894000Y-116948234D01*
X183894000Y-113084463D01*
X183926192Y-113052327D01*
X184068838Y-112708799D01*
X184069162Y-112336833D01*
X183927117Y-111993057D01*
X183894000Y-111959882D01*
X183894000Y-109397800D01*
X184150000Y-109397800D01*
X184704049Y-109287593D01*
X185173749Y-108973749D01*
X185562373Y-108585125D01*
X185797265Y-108585330D01*
X186497686Y-108295922D01*
X186615000Y-108178813D01*
X186615000Y-118005392D01*
X186615000Y-118005392D01*
G37*
X186615000Y-118005392D02*
X186588171Y-118032221D01*
X186456480Y-117737343D01*
X185748964Y-117465739D01*
X184991368Y-117485564D01*
X184572332Y-117659134D01*
X184435121Y-117327057D01*
X184172331Y-117063808D01*
X183894000Y-116948234D01*
X183894000Y-113084463D01*
X183926192Y-113052327D01*
X184068838Y-112708799D01*
X184069162Y-112336833D01*
X183927117Y-111993057D01*
X183894000Y-111959882D01*
X183894000Y-109397800D01*
X184150000Y-109397800D01*
X184704049Y-109287593D01*
X185173749Y-108973749D01*
X185562373Y-108585125D01*
X185797265Y-108585330D01*
X186497686Y-108295922D01*
X186615000Y-108178813D01*
X186615000Y-118005392D01*
M02*
