%TF.GenerationSoftware,KiCad,Pcbnew,0.201604071231+6672~43~ubuntu15.10.1-product*%
%TF.CreationDate,2016-04-11T15:25:12+02:00*%
%TF.ProjectId,connector,636F6E6E6563746F722E6B696361645F,rev?*%
%TF.FileFunction,Legend,Bot*%
%FSLAX46Y46*%
G04 Gerber Fmt 4.6, Leading zero omitted, Abs format (unit mm)*
G04 Created by KiCad (PCBNEW 0.201604071231+6672~43~ubuntu15.10.1-product) date pon, 11 kwi 2016, 15:25:12*
%MOMM*%
G01*
G04 APERTURE LIST*
%ADD10C,0.100000*%
%ADD11C,0.300000*%
%ADD12C,1.924000*%
%ADD13C,4.400000*%
%ADD14C,2.940000*%
G04 APERTURE END LIST*
D10*
D11*
X177843571Y-106477857D02*
X176343571Y-106477857D01*
X176343571Y-107049285D02*
X177843571Y-107406428D01*
X176772142Y-107692142D01*
X177843571Y-107977857D01*
X176343571Y-108335000D01*
X177415000Y-108835000D02*
X177415000Y-109549285D01*
X177843571Y-108692142D02*
X176343571Y-109192142D01*
X177843571Y-109692142D01*
X177772142Y-110120714D02*
X177843571Y-110335000D01*
X177843571Y-110692142D01*
X177772142Y-110835000D01*
X177700714Y-110906428D01*
X177557857Y-110977857D01*
X177415000Y-110977857D01*
X177272142Y-110906428D01*
X177200714Y-110835000D01*
X177129285Y-110692142D01*
X177057857Y-110406428D01*
X176986428Y-110263571D01*
X176915000Y-110192142D01*
X176772142Y-110120714D01*
X176629285Y-110120714D01*
X176486428Y-110192142D01*
X176415000Y-110263571D01*
X176343571Y-110406428D01*
X176343571Y-110763571D01*
X176415000Y-110977857D01*
X176343571Y-111477857D02*
X176343571Y-112477857D01*
X177843571Y-111477857D01*
X177843571Y-112477857D01*
X176486428Y-114120714D02*
X176415000Y-114192142D01*
X176343571Y-114335000D01*
X176343571Y-114692142D01*
X176415000Y-114835000D01*
X176486428Y-114906428D01*
X176629285Y-114977857D01*
X176772142Y-114977857D01*
X176986428Y-114906428D01*
X177843571Y-114049285D01*
X177843571Y-114977857D01*
X176343571Y-115906428D02*
X176343571Y-116049285D01*
X176415000Y-116192142D01*
X176486428Y-116263571D01*
X176629285Y-116335000D01*
X176915000Y-116406428D01*
X177272142Y-116406428D01*
X177557857Y-116335000D01*
X177700714Y-116263571D01*
X177772142Y-116192142D01*
X177843571Y-116049285D01*
X177843571Y-115906428D01*
X177772142Y-115763571D01*
X177700714Y-115692142D01*
X177557857Y-115620714D01*
X177272142Y-115549285D01*
X176915000Y-115549285D01*
X176629285Y-115620714D01*
X176486428Y-115692142D01*
X176415000Y-115763571D01*
X176343571Y-115906428D01*
X177843571Y-117835000D02*
X177843571Y-116977857D01*
X177843571Y-117406428D02*
X176343571Y-117406428D01*
X176557857Y-117263571D01*
X176700714Y-117120714D01*
X176772142Y-116977857D01*
X176343571Y-119120714D02*
X176343571Y-118835000D01*
X176415000Y-118692142D01*
X176486428Y-118620714D01*
X176700714Y-118477857D01*
X176986428Y-118406428D01*
X177557857Y-118406428D01*
X177700714Y-118477857D01*
X177772142Y-118549285D01*
X177843571Y-118692142D01*
X177843571Y-118977857D01*
X177772142Y-119120714D01*
X177700714Y-119192142D01*
X177557857Y-119263571D01*
X177200714Y-119263571D01*
X177057857Y-119192142D01*
X176986428Y-119120714D01*
X176915000Y-118977857D01*
X176915000Y-118692142D01*
X176986428Y-118549285D01*
X177057857Y-118477857D01*
X177200714Y-118406428D01*
%LPC*%
D12*
X174244000Y-109530000D03*
X174244000Y-116530000D03*
X174244000Y-112030000D03*
X174244000Y-114030000D03*
X171624000Y-109530000D03*
X171624000Y-116530000D03*
X171624000Y-112030000D03*
X171624000Y-114030000D03*
D13*
X168914000Y-106460000D03*
X168914000Y-119600000D03*
D14*
X185420000Y-119380000D03*
X185420000Y-106680000D03*
M02*
