%TF.GenerationSoftware,KiCad,Pcbnew,0.201604071231+6672~43~ubuntu15.10.1-product*%
%TF.CreationDate,2016-04-11T15:25:12+02:00*%
%TF.ProjectId,connector,636F6E6E6563746F722E6B696361645F,rev?*%
%TF.FileFunction,Legend,Top*%
%FSLAX46Y46*%
G04 Gerber Fmt 4.6, Leading zero omitted, Abs format (unit mm)*
G04 Created by KiCad (PCBNEW 0.201604071231+6672~43~ubuntu15.10.1-product) date pon, 11 kwi 2016, 15:25:12*
%MOMM*%
G01*
G04 APERTURE LIST*
%ADD10C,0.100000*%
%ADD11C,0.300000*%
%ADD12C,0.127000*%
%ADD13C,0.150000*%
%ADD14C,1.924000*%
%ADD15C,4.400000*%
%ADD16C,2.940000*%
%ADD17R,1.400760X1.299160*%
G04 APERTURE END LIST*
D10*
D11*
X185432000Y-116907857D02*
X185360571Y-117050714D01*
X185360571Y-117265000D01*
X185432000Y-117479285D01*
X185574857Y-117622142D01*
X185717714Y-117693571D01*
X186003428Y-117765000D01*
X186217714Y-117765000D01*
X186503428Y-117693571D01*
X186646285Y-117622142D01*
X186789142Y-117479285D01*
X186860571Y-117265000D01*
X186860571Y-117122142D01*
X186789142Y-116907857D01*
X186717714Y-116836428D01*
X186217714Y-116836428D01*
X186217714Y-117122142D01*
X186860571Y-116193571D02*
X185360571Y-116193571D01*
X186860571Y-115336428D01*
X185360571Y-115336428D01*
X186860571Y-114622142D02*
X185360571Y-114622142D01*
X185360571Y-114265000D01*
X185432000Y-114050714D01*
X185574857Y-113907857D01*
X185717714Y-113836428D01*
X186003428Y-113765000D01*
X186217714Y-113765000D01*
X186503428Y-113836428D01*
X186646285Y-113907857D01*
X186789142Y-114050714D01*
X186860571Y-114265000D01*
X186860571Y-114622142D01*
X186289142Y-112359571D02*
X186289142Y-111216714D01*
X186860571Y-111788142D02*
X185717714Y-111788142D01*
X185360571Y-109788142D02*
X185360571Y-110502428D01*
X186074857Y-110573857D01*
X186003428Y-110502428D01*
X185932000Y-110359571D01*
X185932000Y-110002428D01*
X186003428Y-109859571D01*
X186074857Y-109788142D01*
X186217714Y-109716714D01*
X186574857Y-109716714D01*
X186717714Y-109788142D01*
X186789142Y-109859571D01*
X186860571Y-110002428D01*
X186860571Y-110359571D01*
X186789142Y-110502428D01*
X186717714Y-110573857D01*
X185360571Y-109288142D02*
X186860571Y-108788142D01*
X185360571Y-108288142D01*
D10*
X177454000Y-121655000D02*
X165064000Y-121655000D01*
X177454000Y-104405000D02*
X165064000Y-104405000D01*
X165064000Y-104405000D02*
X165064000Y-121655000D01*
X177454000Y-104405000D02*
X177454000Y-121655000D01*
D12*
X181838600Y-107238800D02*
X182651400Y-107238800D01*
X182626000Y-106121200D02*
X181838600Y-106121200D01*
X182651400Y-105867200D02*
X182651400Y-107492800D01*
X182651400Y-107492800D02*
X181838600Y-107492800D01*
X181838600Y-107492800D02*
X181838600Y-105867200D01*
X181838600Y-105867200D02*
X182651400Y-105867200D01*
X180746400Y-106121200D02*
X179933600Y-106121200D01*
X179959000Y-107238800D02*
X180746400Y-107238800D01*
X179933600Y-107492800D02*
X179933600Y-105867200D01*
X179933600Y-105867200D02*
X180746400Y-105867200D01*
X180746400Y-105867200D02*
X180746400Y-107492800D01*
X180746400Y-107492800D02*
X179933600Y-107492800D01*
X181838600Y-116128800D02*
X182651400Y-116128800D01*
X182626000Y-115011200D02*
X181838600Y-115011200D01*
X182651400Y-114757200D02*
X182651400Y-116382800D01*
X182651400Y-116382800D02*
X181838600Y-116382800D01*
X181838600Y-116382800D02*
X181838600Y-114757200D01*
X181838600Y-114757200D02*
X182651400Y-114757200D01*
X180746400Y-115011200D02*
X179933600Y-115011200D01*
X179959000Y-116128800D02*
X180746400Y-116128800D01*
X179933600Y-116382800D02*
X179933600Y-114757200D01*
X179933600Y-114757200D02*
X180746400Y-114757200D01*
X180746400Y-114757200D02*
X180746400Y-116382800D01*
X180746400Y-116382800D02*
X179933600Y-116382800D01*
X184556400Y-109931200D02*
X183743600Y-109931200D01*
X183769000Y-111048800D02*
X184556400Y-111048800D01*
X183743600Y-111302800D02*
X183743600Y-109677200D01*
X183743600Y-109677200D02*
X184556400Y-109677200D01*
X184556400Y-109677200D02*
X184556400Y-111302800D01*
X184556400Y-111302800D02*
X183743600Y-111302800D01*
X184556400Y-115011200D02*
X183743600Y-115011200D01*
X183769000Y-116128800D02*
X184556400Y-116128800D01*
X183743600Y-116382800D02*
X183743600Y-114757200D01*
X183743600Y-114757200D02*
X184556400Y-114757200D01*
X184556400Y-114757200D02*
X184556400Y-116382800D01*
X184556400Y-116382800D02*
X183743600Y-116382800D01*
X182651400Y-109931200D02*
X181838600Y-109931200D01*
X181864000Y-111048800D02*
X182651400Y-111048800D01*
X181838600Y-111302800D02*
X181838600Y-109677200D01*
X181838600Y-109677200D02*
X182651400Y-109677200D01*
X182651400Y-109677200D02*
X182651400Y-111302800D01*
X182651400Y-111302800D02*
X181838600Y-111302800D01*
X179933600Y-111048800D02*
X180746400Y-111048800D01*
X180721000Y-109931200D02*
X179933600Y-109931200D01*
X180746400Y-109677200D02*
X180746400Y-111302800D01*
X180746400Y-111302800D02*
X179933600Y-111302800D01*
X179933600Y-111302800D02*
X179933600Y-109677200D01*
X179933600Y-109677200D02*
X180746400Y-109677200D01*
X182651400Y-118821200D02*
X181838600Y-118821200D01*
X181864000Y-119938800D02*
X182651400Y-119938800D01*
X181838600Y-120192800D02*
X181838600Y-118567200D01*
X181838600Y-118567200D02*
X182651400Y-118567200D01*
X182651400Y-118567200D02*
X182651400Y-120192800D01*
X182651400Y-120192800D02*
X181838600Y-120192800D01*
X179933600Y-119938800D02*
X180746400Y-119938800D01*
X180721000Y-118821200D02*
X179933600Y-118821200D01*
X180746400Y-118567200D02*
X180746400Y-120192800D01*
X180746400Y-120192800D02*
X179933600Y-120192800D01*
X179933600Y-120192800D02*
X179933600Y-118567200D01*
X179933600Y-118567200D02*
X180746400Y-118567200D01*
D13*
X176601380Y-121485595D02*
X175601380Y-121485595D01*
X175601380Y-121104642D01*
X175649000Y-121009404D01*
X175696619Y-120961785D01*
X175791857Y-120914166D01*
X175934714Y-120914166D01*
X176029952Y-120961785D01*
X176077571Y-121009404D01*
X176125190Y-121104642D01*
X176125190Y-121485595D01*
X176601380Y-119961785D02*
X176601380Y-120533214D01*
X176601380Y-120247500D02*
X175601380Y-120247500D01*
X175744238Y-120342738D01*
X175839476Y-120437976D01*
X175887095Y-120533214D01*
X183967380Y-106944166D02*
X183491190Y-107277500D01*
X183967380Y-107515595D02*
X182967380Y-107515595D01*
X182967380Y-107134642D01*
X183015000Y-107039404D01*
X183062619Y-106991785D01*
X183157857Y-106944166D01*
X183300714Y-106944166D01*
X183395952Y-106991785D01*
X183443571Y-107039404D01*
X183491190Y-107134642D01*
X183491190Y-107515595D01*
X183967380Y-105991785D02*
X183967380Y-106563214D01*
X183967380Y-106277500D02*
X182967380Y-106277500D01*
X183110238Y-106372738D01*
X183205476Y-106467976D01*
X183253095Y-106563214D01*
X179522380Y-106944166D02*
X179046190Y-107277500D01*
X179522380Y-107515595D02*
X178522380Y-107515595D01*
X178522380Y-107134642D01*
X178570000Y-107039404D01*
X178617619Y-106991785D01*
X178712857Y-106944166D01*
X178855714Y-106944166D01*
X178950952Y-106991785D01*
X178998571Y-107039404D01*
X179046190Y-107134642D01*
X179046190Y-107515595D01*
X178617619Y-106563214D02*
X178570000Y-106515595D01*
X178522380Y-106420357D01*
X178522380Y-106182261D01*
X178570000Y-106087023D01*
X178617619Y-106039404D01*
X178712857Y-105991785D01*
X178808095Y-105991785D01*
X178950952Y-106039404D01*
X179522380Y-106610833D01*
X179522380Y-105991785D01*
X181980833Y-114117380D02*
X181647500Y-113641190D01*
X181409404Y-114117380D02*
X181409404Y-113117380D01*
X181790357Y-113117380D01*
X181885595Y-113165000D01*
X181933214Y-113212619D01*
X181980833Y-113307857D01*
X181980833Y-113450714D01*
X181933214Y-113545952D01*
X181885595Y-113593571D01*
X181790357Y-113641190D01*
X181409404Y-113641190D01*
X182314166Y-113117380D02*
X182933214Y-113117380D01*
X182599880Y-113498333D01*
X182742738Y-113498333D01*
X182837976Y-113545952D01*
X182885595Y-113593571D01*
X182933214Y-113688809D01*
X182933214Y-113926904D01*
X182885595Y-114022142D01*
X182837976Y-114069761D01*
X182742738Y-114117380D01*
X182457023Y-114117380D01*
X182361785Y-114069761D01*
X182314166Y-114022142D01*
X179522380Y-115834166D02*
X179046190Y-116167500D01*
X179522380Y-116405595D02*
X178522380Y-116405595D01*
X178522380Y-116024642D01*
X178570000Y-115929404D01*
X178617619Y-115881785D01*
X178712857Y-115834166D01*
X178855714Y-115834166D01*
X178950952Y-115881785D01*
X178998571Y-115929404D01*
X179046190Y-116024642D01*
X179046190Y-116405595D01*
X178855714Y-114977023D02*
X179522380Y-114977023D01*
X178474761Y-115215119D02*
X179189047Y-115453214D01*
X179189047Y-114834166D01*
X183885833Y-109037380D02*
X183552500Y-108561190D01*
X183314404Y-109037380D02*
X183314404Y-108037380D01*
X183695357Y-108037380D01*
X183790595Y-108085000D01*
X183838214Y-108132619D01*
X183885833Y-108227857D01*
X183885833Y-108370714D01*
X183838214Y-108465952D01*
X183790595Y-108513571D01*
X183695357Y-108561190D01*
X183314404Y-108561190D01*
X184790595Y-108037380D02*
X184314404Y-108037380D01*
X184266785Y-108513571D01*
X184314404Y-108465952D01*
X184409642Y-108418333D01*
X184647738Y-108418333D01*
X184742976Y-108465952D01*
X184790595Y-108513571D01*
X184838214Y-108608809D01*
X184838214Y-108846904D01*
X184790595Y-108942142D01*
X184742976Y-108989761D01*
X184647738Y-109037380D01*
X184409642Y-109037380D01*
X184314404Y-108989761D01*
X184266785Y-108942142D01*
X183885833Y-117927380D02*
X183552500Y-117451190D01*
X183314404Y-117927380D02*
X183314404Y-116927380D01*
X183695357Y-116927380D01*
X183790595Y-116975000D01*
X183838214Y-117022619D01*
X183885833Y-117117857D01*
X183885833Y-117260714D01*
X183838214Y-117355952D01*
X183790595Y-117403571D01*
X183695357Y-117451190D01*
X183314404Y-117451190D01*
X184742976Y-116927380D02*
X184552500Y-116927380D01*
X184457261Y-116975000D01*
X184409642Y-117022619D01*
X184314404Y-117165476D01*
X184266785Y-117355952D01*
X184266785Y-117736904D01*
X184314404Y-117832142D01*
X184362023Y-117879761D01*
X184457261Y-117927380D01*
X184647738Y-117927380D01*
X184742976Y-117879761D01*
X184790595Y-117832142D01*
X184838214Y-117736904D01*
X184838214Y-117498809D01*
X184790595Y-117403571D01*
X184742976Y-117355952D01*
X184647738Y-117308333D01*
X184457261Y-117308333D01*
X184362023Y-117355952D01*
X184314404Y-117403571D01*
X184266785Y-117498809D01*
X181980833Y-112847380D02*
X181647500Y-112371190D01*
X181409404Y-112847380D02*
X181409404Y-111847380D01*
X181790357Y-111847380D01*
X181885595Y-111895000D01*
X181933214Y-111942619D01*
X181980833Y-112037857D01*
X181980833Y-112180714D01*
X181933214Y-112275952D01*
X181885595Y-112323571D01*
X181790357Y-112371190D01*
X181409404Y-112371190D01*
X182314166Y-111847380D02*
X182980833Y-111847380D01*
X182552261Y-112847380D01*
X179522380Y-110754166D02*
X179046190Y-111087500D01*
X179522380Y-111325595D02*
X178522380Y-111325595D01*
X178522380Y-110944642D01*
X178570000Y-110849404D01*
X178617619Y-110801785D01*
X178712857Y-110754166D01*
X178855714Y-110754166D01*
X178950952Y-110801785D01*
X178998571Y-110849404D01*
X179046190Y-110944642D01*
X179046190Y-111325595D01*
X178950952Y-110182738D02*
X178903333Y-110277976D01*
X178855714Y-110325595D01*
X178760476Y-110373214D01*
X178712857Y-110373214D01*
X178617619Y-110325595D01*
X178570000Y-110277976D01*
X178522380Y-110182738D01*
X178522380Y-109992261D01*
X178570000Y-109897023D01*
X178617619Y-109849404D01*
X178712857Y-109801785D01*
X178760476Y-109801785D01*
X178855714Y-109849404D01*
X178903333Y-109897023D01*
X178950952Y-109992261D01*
X178950952Y-110182738D01*
X178998571Y-110277976D01*
X179046190Y-110325595D01*
X179141428Y-110373214D01*
X179331904Y-110373214D01*
X179427142Y-110325595D01*
X179474761Y-110277976D01*
X179522380Y-110182738D01*
X179522380Y-109992261D01*
X179474761Y-109897023D01*
X179427142Y-109849404D01*
X179331904Y-109801785D01*
X179141428Y-109801785D01*
X179046190Y-109849404D01*
X178998571Y-109897023D01*
X178950952Y-109992261D01*
X183967380Y-119644166D02*
X183491190Y-119977500D01*
X183967380Y-120215595D02*
X182967380Y-120215595D01*
X182967380Y-119834642D01*
X183015000Y-119739404D01*
X183062619Y-119691785D01*
X183157857Y-119644166D01*
X183300714Y-119644166D01*
X183395952Y-119691785D01*
X183443571Y-119739404D01*
X183491190Y-119834642D01*
X183491190Y-120215595D01*
X183967380Y-119167976D02*
X183967380Y-118977500D01*
X183919761Y-118882261D01*
X183872142Y-118834642D01*
X183729285Y-118739404D01*
X183538809Y-118691785D01*
X183157857Y-118691785D01*
X183062619Y-118739404D01*
X183015000Y-118787023D01*
X182967380Y-118882261D01*
X182967380Y-119072738D01*
X183015000Y-119167976D01*
X183062619Y-119215595D01*
X183157857Y-119263214D01*
X183395952Y-119263214D01*
X183491190Y-119215595D01*
X183538809Y-119167976D01*
X183586428Y-119072738D01*
X183586428Y-118882261D01*
X183538809Y-118787023D01*
X183491190Y-118739404D01*
X183395952Y-118691785D01*
X179522380Y-120120357D02*
X179046190Y-120453690D01*
X179522380Y-120691785D02*
X178522380Y-120691785D01*
X178522380Y-120310833D01*
X178570000Y-120215595D01*
X178617619Y-120167976D01*
X178712857Y-120120357D01*
X178855714Y-120120357D01*
X178950952Y-120167976D01*
X178998571Y-120215595D01*
X179046190Y-120310833D01*
X179046190Y-120691785D01*
X179522380Y-119167976D02*
X179522380Y-119739404D01*
X179522380Y-119453690D02*
X178522380Y-119453690D01*
X178665238Y-119548928D01*
X178760476Y-119644166D01*
X178808095Y-119739404D01*
X178522380Y-118548928D02*
X178522380Y-118453690D01*
X178570000Y-118358452D01*
X178617619Y-118310833D01*
X178712857Y-118263214D01*
X178903333Y-118215595D01*
X179141428Y-118215595D01*
X179331904Y-118263214D01*
X179427142Y-118310833D01*
X179474761Y-118358452D01*
X179522380Y-118453690D01*
X179522380Y-118548928D01*
X179474761Y-118644166D01*
X179427142Y-118691785D01*
X179331904Y-118739404D01*
X179141428Y-118787023D01*
X178903333Y-118787023D01*
X178712857Y-118739404D01*
X178617619Y-118691785D01*
X178570000Y-118644166D01*
X178522380Y-118548928D01*
%LPC*%
D14*
X174244000Y-109530000D03*
X174244000Y-116530000D03*
X174244000Y-112030000D03*
X174244000Y-114030000D03*
X171624000Y-109530000D03*
X171624000Y-116530000D03*
X171624000Y-112030000D03*
X171624000Y-114030000D03*
D15*
X168914000Y-106460000D03*
X168914000Y-119600000D03*
D16*
X185420000Y-119380000D03*
X185420000Y-106680000D03*
D17*
X182245000Y-107431840D03*
X182245000Y-105928160D03*
X180340000Y-105928160D03*
X180340000Y-107431840D03*
X182245000Y-116321840D03*
X182245000Y-114818160D03*
X180340000Y-114818160D03*
X180340000Y-116321840D03*
X184150000Y-109738160D03*
X184150000Y-111241840D03*
X184150000Y-114818160D03*
X184150000Y-116321840D03*
X182245000Y-109738160D03*
X182245000Y-111241840D03*
X180340000Y-111241840D03*
X180340000Y-109738160D03*
X182245000Y-118628160D03*
X182245000Y-120131840D03*
X180340000Y-120131840D03*
X180340000Y-118628160D03*
M02*
