%TF.GenerationSoftware,KiCad,Pcbnew,0.201604071231+6672~43~ubuntu15.10.1-product*%
%TF.CreationDate,2016-04-11T15:25:12+02:00*%
%TF.ProjectId,connector,636F6E6E6563746F722E6B696361645F,rev?*%
%TF.FileFunction,Copper,L1,Top,Signal*%
%FSLAX46Y46*%
G04 Gerber Fmt 4.6, Leading zero omitted, Abs format (unit mm)*
G04 Created by KiCad (PCBNEW 0.201604071231+6672~43~ubuntu15.10.1-product) date pon, 11 kwi 2016, 15:25:12*
%MOMM*%
G01*
G04 APERTURE LIST*
%ADD10C,0.100000*%
%ADD11C,1.524000*%
%ADD12C,4.000000*%
%ADD13C,2.540000*%
%ADD14R,1.000760X0.899160*%
%ADD15C,0.600000*%
%ADD16C,0.250000*%
%ADD17C,1.625600*%
%ADD18C,0.254000*%
G04 APERTURE END LIST*
D10*
D11*
X174244000Y-109530000D03*
X174244000Y-116530000D03*
X174244000Y-112030000D03*
X174244000Y-114030000D03*
X171624000Y-109530000D03*
X171624000Y-116530000D03*
X171624000Y-112030000D03*
X171624000Y-114030000D03*
D12*
X168914000Y-106460000D03*
X168914000Y-119600000D03*
D13*
X185420000Y-119380000D03*
X185420000Y-106680000D03*
D14*
X182245000Y-107431840D03*
X182245000Y-105928160D03*
X180340000Y-105928160D03*
X180340000Y-107431840D03*
X182245000Y-116321840D03*
X182245000Y-114818160D03*
X180340000Y-114818160D03*
X180340000Y-116321840D03*
X184150000Y-109738160D03*
X184150000Y-111241840D03*
X184150000Y-114818160D03*
X184150000Y-116321840D03*
X182245000Y-109738160D03*
X182245000Y-111241840D03*
X180340000Y-111241840D03*
X180340000Y-109738160D03*
X182245000Y-118628160D03*
X182245000Y-120131840D03*
X180340000Y-120131840D03*
X180340000Y-118628160D03*
D15*
X183642004Y-117856000D03*
X183134000Y-112522000D03*
X185166000Y-113030000D03*
X177292000Y-117856000D03*
X176022000Y-118110000D03*
X174752000Y-118110000D03*
X173482000Y-118110000D03*
X172212000Y-118110000D03*
X178308000Y-117602000D03*
X179832000Y-113030000D03*
X178816000Y-109728000D03*
X178562000Y-106426000D03*
D16*
X183642000Y-118534264D02*
X183642004Y-118534260D01*
X182295800Y-120131840D02*
X183642000Y-118785640D01*
X183642004Y-118534260D02*
X183642004Y-117856000D01*
X182245000Y-120131840D02*
X182295800Y-120131840D01*
X183642000Y-118785640D02*
X183642000Y-118534264D01*
X182245000Y-105928160D02*
X184668160Y-105928160D01*
X184668160Y-105928160D02*
X185420000Y-106680000D01*
X182245000Y-105928160D02*
X182295800Y-105928160D01*
D17*
X171624000Y-109530000D02*
X174244000Y-109530000D01*
D16*
X183134000Y-112522000D02*
X183134000Y-113979960D01*
X183134000Y-113979960D02*
X182295800Y-114818160D01*
X182295800Y-114818160D02*
X182245000Y-114818160D01*
X183134000Y-112522000D02*
X183134000Y-112130840D01*
X183134000Y-112130840D02*
X182245000Y-111241840D01*
X185420000Y-119380000D02*
X185420000Y-113284000D01*
X185420000Y-113284000D02*
X185166000Y-113030000D01*
X176022000Y-118110000D02*
X177038000Y-118110000D01*
X177038000Y-118110000D02*
X177292000Y-117856000D01*
X173482000Y-118110000D02*
X174752000Y-118110000D01*
X171624000Y-116530000D02*
X171624000Y-117522000D01*
X171624000Y-117522000D02*
X172212000Y-118110000D01*
X171624000Y-116530000D02*
X174244000Y-116530000D01*
X180340000Y-120131840D02*
X180390800Y-120131840D01*
X183642000Y-121158000D02*
X185420000Y-119380000D01*
X180390800Y-120131840D02*
X181416960Y-121158000D01*
X181416960Y-121158000D02*
X183642000Y-121158000D01*
X180340000Y-105928160D02*
X179589620Y-105928160D01*
X179589620Y-105928160D02*
X179462459Y-105800999D01*
X179462459Y-105800999D02*
X178261999Y-105800999D01*
X178261999Y-105800999D02*
X177936999Y-106125999D01*
X177936999Y-106125999D02*
X177936999Y-109774001D01*
X177936999Y-109774001D02*
X179404838Y-111241840D01*
X179404838Y-111241840D02*
X180340000Y-111241840D01*
X178308000Y-118150640D02*
X178308000Y-117602000D01*
X180289200Y-120131840D02*
X178308000Y-118150640D01*
X180340000Y-120131840D02*
X180289200Y-120131840D01*
X180340000Y-113030000D02*
X180340000Y-114818160D01*
X180340000Y-111241840D02*
X180340000Y-113030000D01*
X180340000Y-113030000D02*
X179832000Y-113030000D01*
X174244000Y-112030000D02*
X178535840Y-116321840D01*
X178535840Y-116321840D02*
X180340000Y-116321840D01*
X180096160Y-116078000D02*
X180340000Y-116321840D01*
X182245000Y-116321840D02*
X182595520Y-116321840D01*
X182595520Y-116321840D02*
X184099200Y-114818160D01*
X184099200Y-114818160D02*
X184150000Y-114818160D01*
X180340000Y-116321840D02*
X182245000Y-116321840D01*
X182245000Y-118628160D02*
X182245000Y-117928580D01*
X182245000Y-117928580D02*
X183851740Y-116321840D01*
X183851740Y-116321840D02*
X184150000Y-116321840D01*
X174244000Y-114030000D02*
X176985849Y-116771849D01*
X176985849Y-116771849D02*
X178432889Y-116771849D01*
X178432889Y-116771849D02*
X180289200Y-118628160D01*
X180289200Y-118628160D02*
X180340000Y-118628160D01*
X180340000Y-118364000D02*
X180340000Y-118628160D01*
X180340000Y-118628160D02*
X182245000Y-118628160D01*
X178816000Y-109728000D02*
X180329840Y-109728000D01*
X180329840Y-109728000D02*
X180340000Y-109738160D01*
X184150000Y-111241840D02*
X184099200Y-111241840D01*
X184099200Y-111241840D02*
X182595520Y-109738160D01*
X182595520Y-109738160D02*
X182245000Y-109738160D01*
X180340000Y-109738160D02*
X182245000Y-109738160D01*
X180172360Y-109855000D02*
X180289200Y-109738160D01*
X180289200Y-109738160D02*
X180340000Y-109738160D01*
X178562000Y-106426000D02*
X179334160Y-106426000D01*
X179334160Y-106426000D02*
X180340000Y-107431840D01*
X182245000Y-107431840D02*
X182295800Y-107431840D01*
X182295800Y-107431840D02*
X184150000Y-109286040D01*
X184150000Y-109286040D02*
X184150000Y-109738160D01*
X180340000Y-107431840D02*
X182245000Y-107431840D01*
D18*
G36*
X166681458Y-104965443D02*
X166279458Y-105933567D01*
X166278543Y-106981834D01*
X166678853Y-107950658D01*
X167419443Y-108692542D01*
X168387567Y-109094542D01*
X169435834Y-109095457D01*
X170404658Y-108695147D01*
X171146542Y-107954557D01*
X171548542Y-106986433D01*
X171549457Y-105938166D01*
X171149147Y-104969342D01*
X171030013Y-104850000D01*
X179697811Y-104850000D01*
X179479921Y-104940253D01*
X179301293Y-105118882D01*
X179204620Y-105352271D01*
X179204620Y-105642410D01*
X179228210Y-105666000D01*
X179124463Y-105666000D01*
X179092327Y-105633808D01*
X178748799Y-105491162D01*
X178376833Y-105490838D01*
X178033057Y-105632883D01*
X177769808Y-105895673D01*
X177627162Y-106239201D01*
X177626838Y-106611167D01*
X177768883Y-106954943D01*
X178031673Y-107218192D01*
X178375201Y-107360838D01*
X178747167Y-107361162D01*
X179063722Y-107230364D01*
X179192180Y-107358822D01*
X179192180Y-107881420D01*
X179241463Y-108129185D01*
X179381811Y-108339229D01*
X179591855Y-108479577D01*
X179839620Y-108528860D01*
X180840380Y-108528860D01*
X181088145Y-108479577D01*
X181292500Y-108343030D01*
X181496855Y-108479577D01*
X181744620Y-108528860D01*
X182318018Y-108528860D01*
X182430298Y-108641140D01*
X181744620Y-108641140D01*
X181496855Y-108690423D01*
X181292500Y-108826970D01*
X181088145Y-108690423D01*
X180840380Y-108641140D01*
X179839620Y-108641140D01*
X179591855Y-108690423D01*
X179381811Y-108830771D01*
X179319164Y-108924529D01*
X179002799Y-108793162D01*
X178630833Y-108792838D01*
X178287057Y-108934883D01*
X178023808Y-109197673D01*
X177881162Y-109541201D01*
X177880838Y-109913167D01*
X178022883Y-110256943D01*
X178285673Y-110520192D01*
X178629201Y-110662838D01*
X179001167Y-110663162D01*
X179248025Y-110561163D01*
X179204620Y-110665951D01*
X179204620Y-110956090D01*
X179363370Y-111114840D01*
X180213000Y-111114840D01*
X180213000Y-111094840D01*
X180467000Y-111094840D01*
X180467000Y-111114840D01*
X180487000Y-111114840D01*
X180487000Y-111368840D01*
X180467000Y-111368840D01*
X180467000Y-112167670D01*
X180625750Y-112326420D01*
X180966690Y-112326420D01*
X181200079Y-112229747D01*
X181284322Y-112145504D01*
X181286811Y-112149229D01*
X181496855Y-112289577D01*
X181744620Y-112338860D01*
X182199159Y-112338860D01*
X182198838Y-112707167D01*
X182340883Y-113050943D01*
X182374000Y-113084118D01*
X182374000Y-113665158D01*
X182318018Y-113721140D01*
X181744620Y-113721140D01*
X181496855Y-113770423D01*
X181286811Y-113910771D01*
X181284322Y-113914496D01*
X181200079Y-113830253D01*
X180966690Y-113733580D01*
X180625750Y-113733580D01*
X180467000Y-113892330D01*
X180467000Y-114691160D01*
X180487000Y-114691160D01*
X180487000Y-114945160D01*
X180467000Y-114945160D01*
X180467000Y-114965160D01*
X180213000Y-114965160D01*
X180213000Y-114945160D01*
X179363370Y-114945160D01*
X179204620Y-115103910D01*
X179204620Y-115394049D01*
X179274121Y-115561840D01*
X178850642Y-115561840D01*
X177531073Y-114242271D01*
X179204620Y-114242271D01*
X179204620Y-114532410D01*
X179363370Y-114691160D01*
X180213000Y-114691160D01*
X180213000Y-113892330D01*
X180054250Y-113733580D01*
X179713310Y-113733580D01*
X179479921Y-113830253D01*
X179301293Y-114008882D01*
X179204620Y-114242271D01*
X177531073Y-114242271D01*
X175628183Y-112339381D01*
X175640757Y-112309100D01*
X175641242Y-111753339D01*
X175547965Y-111527590D01*
X179204620Y-111527590D01*
X179204620Y-111817729D01*
X179301293Y-112051118D01*
X179479921Y-112229747D01*
X179713310Y-112326420D01*
X180054250Y-112326420D01*
X180213000Y-112167670D01*
X180213000Y-111368840D01*
X179363370Y-111368840D01*
X179204620Y-111527590D01*
X175547965Y-111527590D01*
X175429010Y-111239697D01*
X175036370Y-110846371D01*
X174908977Y-110793473D01*
X175013608Y-110723561D01*
X175034303Y-110715010D01*
X175050291Y-110699050D01*
X175267749Y-110553749D01*
X175411781Y-110338191D01*
X175427629Y-110322370D01*
X175436292Y-110301507D01*
X175581593Y-110084049D01*
X175632170Y-109829779D01*
X175640757Y-109809100D01*
X175640777Y-109786512D01*
X175691800Y-109530000D01*
X175641222Y-109275729D01*
X175641242Y-109253339D01*
X175632616Y-109232463D01*
X175581593Y-108975951D01*
X175437561Y-108760392D01*
X175429010Y-108739697D01*
X175413050Y-108723709D01*
X175267749Y-108506251D01*
X175052191Y-108362219D01*
X175036370Y-108346371D01*
X175015507Y-108337708D01*
X174798049Y-108192407D01*
X174543779Y-108141830D01*
X174523100Y-108133243D01*
X174500512Y-108133223D01*
X174244000Y-108082200D01*
X171624000Y-108082200D01*
X171369729Y-108132778D01*
X171347339Y-108132758D01*
X171326463Y-108141384D01*
X171069951Y-108192407D01*
X170854392Y-108336439D01*
X170833697Y-108344990D01*
X170817709Y-108360950D01*
X170600251Y-108506251D01*
X170456219Y-108721809D01*
X170440371Y-108737630D01*
X170431708Y-108758493D01*
X170286407Y-108975951D01*
X170235830Y-109230221D01*
X170227243Y-109250900D01*
X170227223Y-109273488D01*
X170176200Y-109530000D01*
X170226778Y-109784271D01*
X170226758Y-109806661D01*
X170235384Y-109827537D01*
X170286407Y-110084049D01*
X170430439Y-110299608D01*
X170438990Y-110320303D01*
X170454950Y-110336291D01*
X170600251Y-110553749D01*
X170815809Y-110697781D01*
X170831630Y-110713629D01*
X170852493Y-110722292D01*
X170958776Y-110793308D01*
X170833697Y-110844990D01*
X170440371Y-111237630D01*
X170227243Y-111750900D01*
X170226758Y-112306661D01*
X170438990Y-112820303D01*
X170648342Y-113030021D01*
X170440371Y-113237630D01*
X170227243Y-113750900D01*
X170226758Y-114306661D01*
X170438990Y-114820303D01*
X170831630Y-115213629D01*
X170975503Y-115273370D01*
X170892857Y-115307603D01*
X170823392Y-115549787D01*
X171624000Y-116350395D01*
X172424608Y-115549787D01*
X172355143Y-115307603D01*
X172266633Y-115276026D01*
X172414303Y-115215010D01*
X172807629Y-114822370D01*
X172934048Y-114517919D01*
X173058990Y-114820303D01*
X173451630Y-115213629D01*
X173595503Y-115273370D01*
X173512857Y-115307603D01*
X173443392Y-115549787D01*
X174244000Y-116350395D01*
X174258143Y-116336253D01*
X174437748Y-116515858D01*
X174423605Y-116530000D01*
X175224213Y-117330608D01*
X175466397Y-117261143D01*
X175653144Y-116737698D01*
X175641355Y-116502157D01*
X176448448Y-117309250D01*
X176695010Y-117473997D01*
X176985849Y-117531849D01*
X178118087Y-117531849D01*
X179192180Y-118605942D01*
X179192180Y-119077740D01*
X179241463Y-119325505D01*
X179277645Y-119379654D01*
X179204620Y-119555951D01*
X179204620Y-119846090D01*
X179363370Y-120004840D01*
X180213000Y-120004840D01*
X180213000Y-119984840D01*
X180467000Y-119984840D01*
X180467000Y-120004840D01*
X180487000Y-120004840D01*
X180487000Y-120258840D01*
X180467000Y-120258840D01*
X180467000Y-120278840D01*
X180213000Y-120278840D01*
X180213000Y-120258840D01*
X179363370Y-120258840D01*
X179204620Y-120417590D01*
X179204620Y-120707729D01*
X179301293Y-120941118D01*
X179479921Y-121119747D01*
X179697811Y-121210000D01*
X171030897Y-121210000D01*
X171146542Y-121094557D01*
X171548542Y-120126433D01*
X171549457Y-119078166D01*
X171149147Y-118109342D01*
X170551064Y-117510213D01*
X170823392Y-117510213D01*
X170892857Y-117752397D01*
X171416302Y-117939144D01*
X171971368Y-117911362D01*
X172355143Y-117752397D01*
X172424608Y-117510213D01*
X173443392Y-117510213D01*
X173512857Y-117752397D01*
X174036302Y-117939144D01*
X174591368Y-117911362D01*
X174975143Y-117752397D01*
X175044608Y-117510213D01*
X174244000Y-116709605D01*
X173443392Y-117510213D01*
X172424608Y-117510213D01*
X171624000Y-116709605D01*
X170823392Y-117510213D01*
X170551064Y-117510213D01*
X170408557Y-117367458D01*
X169440433Y-116965458D01*
X168392166Y-116964543D01*
X167423342Y-117364853D01*
X166681458Y-118105443D01*
X166279458Y-119073567D01*
X166278543Y-120121834D01*
X166678853Y-121090658D01*
X166797987Y-121210000D01*
X165810000Y-121210000D01*
X165810000Y-116322302D01*
X170214856Y-116322302D01*
X170242638Y-116877368D01*
X170401603Y-117261143D01*
X170643787Y-117330608D01*
X171444395Y-116530000D01*
X171803605Y-116530000D01*
X172604213Y-117330608D01*
X172846397Y-117261143D01*
X172927472Y-117033892D01*
X173021603Y-117261143D01*
X173263787Y-117330608D01*
X174064395Y-116530000D01*
X173263787Y-115729392D01*
X173021603Y-115798857D01*
X172940528Y-116026108D01*
X172846397Y-115798857D01*
X172604213Y-115729392D01*
X171803605Y-116530000D01*
X171444395Y-116530000D01*
X170643787Y-115729392D01*
X170401603Y-115798857D01*
X170214856Y-116322302D01*
X165810000Y-116322302D01*
X165810000Y-104850000D01*
X166797103Y-104850000D01*
X166681458Y-104965443D01*
X166681458Y-104965443D01*
G37*
X166681458Y-104965443D02*
X166279458Y-105933567D01*
X166278543Y-106981834D01*
X166678853Y-107950658D01*
X167419443Y-108692542D01*
X168387567Y-109094542D01*
X169435834Y-109095457D01*
X170404658Y-108695147D01*
X171146542Y-107954557D01*
X171548542Y-106986433D01*
X171549457Y-105938166D01*
X171149147Y-104969342D01*
X171030013Y-104850000D01*
X179697811Y-104850000D01*
X179479921Y-104940253D01*
X179301293Y-105118882D01*
X179204620Y-105352271D01*
X179204620Y-105642410D01*
X179228210Y-105666000D01*
X179124463Y-105666000D01*
X179092327Y-105633808D01*
X178748799Y-105491162D01*
X178376833Y-105490838D01*
X178033057Y-105632883D01*
X177769808Y-105895673D01*
X177627162Y-106239201D01*
X177626838Y-106611167D01*
X177768883Y-106954943D01*
X178031673Y-107218192D01*
X178375201Y-107360838D01*
X178747167Y-107361162D01*
X179063722Y-107230364D01*
X179192180Y-107358822D01*
X179192180Y-107881420D01*
X179241463Y-108129185D01*
X179381811Y-108339229D01*
X179591855Y-108479577D01*
X179839620Y-108528860D01*
X180840380Y-108528860D01*
X181088145Y-108479577D01*
X181292500Y-108343030D01*
X181496855Y-108479577D01*
X181744620Y-108528860D01*
X182318018Y-108528860D01*
X182430298Y-108641140D01*
X181744620Y-108641140D01*
X181496855Y-108690423D01*
X181292500Y-108826970D01*
X181088145Y-108690423D01*
X180840380Y-108641140D01*
X179839620Y-108641140D01*
X179591855Y-108690423D01*
X179381811Y-108830771D01*
X179319164Y-108924529D01*
X179002799Y-108793162D01*
X178630833Y-108792838D01*
X178287057Y-108934883D01*
X178023808Y-109197673D01*
X177881162Y-109541201D01*
X177880838Y-109913167D01*
X178022883Y-110256943D01*
X178285673Y-110520192D01*
X178629201Y-110662838D01*
X179001167Y-110663162D01*
X179248025Y-110561163D01*
X179204620Y-110665951D01*
X179204620Y-110956090D01*
X179363370Y-111114840D01*
X180213000Y-111114840D01*
X180213000Y-111094840D01*
X180467000Y-111094840D01*
X180467000Y-111114840D01*
X180487000Y-111114840D01*
X180487000Y-111368840D01*
X180467000Y-111368840D01*
X180467000Y-112167670D01*
X180625750Y-112326420D01*
X180966690Y-112326420D01*
X181200079Y-112229747D01*
X181284322Y-112145504D01*
X181286811Y-112149229D01*
X181496855Y-112289577D01*
X181744620Y-112338860D01*
X182199159Y-112338860D01*
X182198838Y-112707167D01*
X182340883Y-113050943D01*
X182374000Y-113084118D01*
X182374000Y-113665158D01*
X182318018Y-113721140D01*
X181744620Y-113721140D01*
X181496855Y-113770423D01*
X181286811Y-113910771D01*
X181284322Y-113914496D01*
X181200079Y-113830253D01*
X180966690Y-113733580D01*
X180625750Y-113733580D01*
X180467000Y-113892330D01*
X180467000Y-114691160D01*
X180487000Y-114691160D01*
X180487000Y-114945160D01*
X180467000Y-114945160D01*
X180467000Y-114965160D01*
X180213000Y-114965160D01*
X180213000Y-114945160D01*
X179363370Y-114945160D01*
X179204620Y-115103910D01*
X179204620Y-115394049D01*
X179274121Y-115561840D01*
X178850642Y-115561840D01*
X177531073Y-114242271D01*
X179204620Y-114242271D01*
X179204620Y-114532410D01*
X179363370Y-114691160D01*
X180213000Y-114691160D01*
X180213000Y-113892330D01*
X180054250Y-113733580D01*
X179713310Y-113733580D01*
X179479921Y-113830253D01*
X179301293Y-114008882D01*
X179204620Y-114242271D01*
X177531073Y-114242271D01*
X175628183Y-112339381D01*
X175640757Y-112309100D01*
X175641242Y-111753339D01*
X175547965Y-111527590D01*
X179204620Y-111527590D01*
X179204620Y-111817729D01*
X179301293Y-112051118D01*
X179479921Y-112229747D01*
X179713310Y-112326420D01*
X180054250Y-112326420D01*
X180213000Y-112167670D01*
X180213000Y-111368840D01*
X179363370Y-111368840D01*
X179204620Y-111527590D01*
X175547965Y-111527590D01*
X175429010Y-111239697D01*
X175036370Y-110846371D01*
X174908977Y-110793473D01*
X175013608Y-110723561D01*
X175034303Y-110715010D01*
X175050291Y-110699050D01*
X175267749Y-110553749D01*
X175411781Y-110338191D01*
X175427629Y-110322370D01*
X175436292Y-110301507D01*
X175581593Y-110084049D01*
X175632170Y-109829779D01*
X175640757Y-109809100D01*
X175640777Y-109786512D01*
X175691800Y-109530000D01*
X175641222Y-109275729D01*
X175641242Y-109253339D01*
X175632616Y-109232463D01*
X175581593Y-108975951D01*
X175437561Y-108760392D01*
X175429010Y-108739697D01*
X175413050Y-108723709D01*
X175267749Y-108506251D01*
X175052191Y-108362219D01*
X175036370Y-108346371D01*
X175015507Y-108337708D01*
X174798049Y-108192407D01*
X174543779Y-108141830D01*
X174523100Y-108133243D01*
X174500512Y-108133223D01*
X174244000Y-108082200D01*
X171624000Y-108082200D01*
X171369729Y-108132778D01*
X171347339Y-108132758D01*
X171326463Y-108141384D01*
X171069951Y-108192407D01*
X170854392Y-108336439D01*
X170833697Y-108344990D01*
X170817709Y-108360950D01*
X170600251Y-108506251D01*
X170456219Y-108721809D01*
X170440371Y-108737630D01*
X170431708Y-108758493D01*
X170286407Y-108975951D01*
X170235830Y-109230221D01*
X170227243Y-109250900D01*
X170227223Y-109273488D01*
X170176200Y-109530000D01*
X170226778Y-109784271D01*
X170226758Y-109806661D01*
X170235384Y-109827537D01*
X170286407Y-110084049D01*
X170430439Y-110299608D01*
X170438990Y-110320303D01*
X170454950Y-110336291D01*
X170600251Y-110553749D01*
X170815809Y-110697781D01*
X170831630Y-110713629D01*
X170852493Y-110722292D01*
X170958776Y-110793308D01*
X170833697Y-110844990D01*
X170440371Y-111237630D01*
X170227243Y-111750900D01*
X170226758Y-112306661D01*
X170438990Y-112820303D01*
X170648342Y-113030021D01*
X170440371Y-113237630D01*
X170227243Y-113750900D01*
X170226758Y-114306661D01*
X170438990Y-114820303D01*
X170831630Y-115213629D01*
X170975503Y-115273370D01*
X170892857Y-115307603D01*
X170823392Y-115549787D01*
X171624000Y-116350395D01*
X172424608Y-115549787D01*
X172355143Y-115307603D01*
X172266633Y-115276026D01*
X172414303Y-115215010D01*
X172807629Y-114822370D01*
X172934048Y-114517919D01*
X173058990Y-114820303D01*
X173451630Y-115213629D01*
X173595503Y-115273370D01*
X173512857Y-115307603D01*
X173443392Y-115549787D01*
X174244000Y-116350395D01*
X174258143Y-116336253D01*
X174437748Y-116515858D01*
X174423605Y-116530000D01*
X175224213Y-117330608D01*
X175466397Y-117261143D01*
X175653144Y-116737698D01*
X175641355Y-116502157D01*
X176448448Y-117309250D01*
X176695010Y-117473997D01*
X176985849Y-117531849D01*
X178118087Y-117531849D01*
X179192180Y-118605942D01*
X179192180Y-119077740D01*
X179241463Y-119325505D01*
X179277645Y-119379654D01*
X179204620Y-119555951D01*
X179204620Y-119846090D01*
X179363370Y-120004840D01*
X180213000Y-120004840D01*
X180213000Y-119984840D01*
X180467000Y-119984840D01*
X180467000Y-120004840D01*
X180487000Y-120004840D01*
X180487000Y-120258840D01*
X180467000Y-120258840D01*
X180467000Y-120278840D01*
X180213000Y-120278840D01*
X180213000Y-120258840D01*
X179363370Y-120258840D01*
X179204620Y-120417590D01*
X179204620Y-120707729D01*
X179301293Y-120941118D01*
X179479921Y-121119747D01*
X179697811Y-121210000D01*
X171030897Y-121210000D01*
X171146542Y-121094557D01*
X171548542Y-120126433D01*
X171549457Y-119078166D01*
X171149147Y-118109342D01*
X170551064Y-117510213D01*
X170823392Y-117510213D01*
X170892857Y-117752397D01*
X171416302Y-117939144D01*
X171971368Y-117911362D01*
X172355143Y-117752397D01*
X172424608Y-117510213D01*
X173443392Y-117510213D01*
X173512857Y-117752397D01*
X174036302Y-117939144D01*
X174591368Y-117911362D01*
X174975143Y-117752397D01*
X175044608Y-117510213D01*
X174244000Y-116709605D01*
X173443392Y-117510213D01*
X172424608Y-117510213D01*
X171624000Y-116709605D01*
X170823392Y-117510213D01*
X170551064Y-117510213D01*
X170408557Y-117367458D01*
X169440433Y-116965458D01*
X168392166Y-116964543D01*
X167423342Y-117364853D01*
X166681458Y-118105443D01*
X166279458Y-119073567D01*
X166278543Y-120121834D01*
X166678853Y-121090658D01*
X166797987Y-121210000D01*
X165810000Y-121210000D01*
X165810000Y-116322302D01*
X170214856Y-116322302D01*
X170242638Y-116877368D01*
X170401603Y-117261143D01*
X170643787Y-117330608D01*
X171444395Y-116530000D01*
X171803605Y-116530000D01*
X172604213Y-117330608D01*
X172846397Y-117261143D01*
X172927472Y-117033892D01*
X173021603Y-117261143D01*
X173263787Y-117330608D01*
X174064395Y-116530000D01*
X173263787Y-115729392D01*
X173021603Y-115798857D01*
X172940528Y-116026108D01*
X172846397Y-115798857D01*
X172604213Y-115729392D01*
X171803605Y-116530000D01*
X171444395Y-116530000D01*
X170643787Y-115729392D01*
X170401603Y-115798857D01*
X170214856Y-116322302D01*
X165810000Y-116322302D01*
X165810000Y-104850000D01*
X166797103Y-104850000D01*
X166681458Y-104965443D01*
G36*
X185613748Y-119365858D02*
X185599605Y-119380000D01*
X185613748Y-119394143D01*
X185434143Y-119573748D01*
X185420000Y-119559605D01*
X184251828Y-120727777D01*
X184383520Y-121022657D01*
X184871540Y-121210000D01*
X182840197Y-121210000D01*
X182993145Y-121179577D01*
X183203189Y-121039229D01*
X183343537Y-120829185D01*
X183392820Y-120581420D01*
X183392820Y-120109622D01*
X183574842Y-119927600D01*
X183777343Y-120416480D01*
X184072223Y-120548172D01*
X185240395Y-119380000D01*
X185226253Y-119365858D01*
X185405858Y-119186253D01*
X185420000Y-119200395D01*
X185434143Y-119186253D01*
X185613748Y-119365858D01*
X185613748Y-119365858D01*
G37*
X185613748Y-119365858D02*
X185599605Y-119380000D01*
X185613748Y-119394143D01*
X185434143Y-119573748D01*
X185420000Y-119559605D01*
X184251828Y-120727777D01*
X184383520Y-121022657D01*
X184871540Y-121210000D01*
X182840197Y-121210000D01*
X182993145Y-121179577D01*
X183203189Y-121039229D01*
X183343537Y-120829185D01*
X183392820Y-120581420D01*
X183392820Y-120109622D01*
X183574842Y-119927600D01*
X183777343Y-120416480D01*
X184072223Y-120548172D01*
X185240395Y-119380000D01*
X185226253Y-119365858D01*
X185405858Y-119186253D01*
X185420000Y-119200395D01*
X185434143Y-119186253D01*
X185613748Y-119365858D01*
G36*
X181286811Y-121039229D02*
X181496855Y-121179577D01*
X181649803Y-121210000D01*
X180982189Y-121210000D01*
X181200079Y-121119747D01*
X181284322Y-121035504D01*
X181286811Y-121039229D01*
X181286811Y-121039229D01*
G37*
X181286811Y-121039229D02*
X181496855Y-121179577D01*
X181649803Y-121210000D01*
X180982189Y-121210000D01*
X181200079Y-121119747D01*
X181284322Y-121035504D01*
X181286811Y-121039229D01*
G36*
X183514670Y-107057265D02*
X183804078Y-107757686D01*
X184339495Y-108294039D01*
X185039410Y-108584668D01*
X185797265Y-108585330D01*
X186497686Y-108295922D01*
X186615000Y-108178813D01*
X186615000Y-118005392D01*
X186588171Y-118032221D01*
X186456480Y-117737343D01*
X185748964Y-117465739D01*
X184991368Y-117485564D01*
X184572332Y-117659134D01*
X184473053Y-117418860D01*
X184650380Y-117418860D01*
X184898145Y-117369577D01*
X185108189Y-117229229D01*
X185248537Y-117019185D01*
X185297820Y-116771420D01*
X185297820Y-115872260D01*
X185248537Y-115624495D01*
X185212124Y-115570000D01*
X185248537Y-115515505D01*
X185297820Y-115267740D01*
X185297820Y-114368580D01*
X185248537Y-114120815D01*
X185108189Y-113910771D01*
X184898145Y-113770423D01*
X184650380Y-113721140D01*
X183894000Y-113721140D01*
X183894000Y-113084463D01*
X183926192Y-113052327D01*
X184068838Y-112708799D01*
X184069160Y-112338860D01*
X184650380Y-112338860D01*
X184898145Y-112289577D01*
X185108189Y-112149229D01*
X185248537Y-111939185D01*
X185297820Y-111691420D01*
X185297820Y-110792260D01*
X185248537Y-110544495D01*
X185212124Y-110490000D01*
X185248537Y-110435505D01*
X185297820Y-110187740D01*
X185297820Y-109288580D01*
X185248537Y-109040815D01*
X185108189Y-108830771D01*
X184898145Y-108690423D01*
X184650380Y-108641140D01*
X184579902Y-108641140D01*
X183392820Y-107454058D01*
X183392820Y-106982260D01*
X183343537Y-106734495D01*
X183312577Y-106688160D01*
X183514992Y-106688160D01*
X183514670Y-107057265D01*
X183514670Y-107057265D01*
G37*
X183514670Y-107057265D02*
X183804078Y-107757686D01*
X184339495Y-108294039D01*
X185039410Y-108584668D01*
X185797265Y-108585330D01*
X186497686Y-108295922D01*
X186615000Y-108178813D01*
X186615000Y-118005392D01*
X186588171Y-118032221D01*
X186456480Y-117737343D01*
X185748964Y-117465739D01*
X184991368Y-117485564D01*
X184572332Y-117659134D01*
X184473053Y-117418860D01*
X184650380Y-117418860D01*
X184898145Y-117369577D01*
X185108189Y-117229229D01*
X185248537Y-117019185D01*
X185297820Y-116771420D01*
X185297820Y-115872260D01*
X185248537Y-115624495D01*
X185212124Y-115570000D01*
X185248537Y-115515505D01*
X185297820Y-115267740D01*
X185297820Y-114368580D01*
X185248537Y-114120815D01*
X185108189Y-113910771D01*
X184898145Y-113770423D01*
X184650380Y-113721140D01*
X183894000Y-113721140D01*
X183894000Y-113084463D01*
X183926192Y-113052327D01*
X184068838Y-112708799D01*
X184069160Y-112338860D01*
X184650380Y-112338860D01*
X184898145Y-112289577D01*
X185108189Y-112149229D01*
X185248537Y-111939185D01*
X185297820Y-111691420D01*
X185297820Y-110792260D01*
X185248537Y-110544495D01*
X185212124Y-110490000D01*
X185248537Y-110435505D01*
X185297820Y-110187740D01*
X185297820Y-109288580D01*
X185248537Y-109040815D01*
X185108189Y-108830771D01*
X184898145Y-108690423D01*
X184650380Y-108641140D01*
X184579902Y-108641140D01*
X183392820Y-107454058D01*
X183392820Y-106982260D01*
X183343537Y-106734495D01*
X183312577Y-106688160D01*
X183514992Y-106688160D01*
X183514670Y-107057265D01*
G36*
X180467000Y-105801160D02*
X180487000Y-105801160D01*
X180487000Y-106055160D01*
X180467000Y-106055160D01*
X180467000Y-106075160D01*
X180213000Y-106075160D01*
X180213000Y-106055160D01*
X180193000Y-106055160D01*
X180193000Y-105801160D01*
X180213000Y-105801160D01*
X180213000Y-105781160D01*
X180467000Y-105781160D01*
X180467000Y-105801160D01*
X180467000Y-105801160D01*
G37*
X180467000Y-105801160D02*
X180487000Y-105801160D01*
X180487000Y-106055160D01*
X180467000Y-106055160D01*
X180467000Y-106075160D01*
X180213000Y-106075160D01*
X180213000Y-106055160D01*
X180193000Y-106055160D01*
X180193000Y-105801160D01*
X180213000Y-105801160D01*
X180213000Y-105781160D01*
X180467000Y-105781160D01*
X180467000Y-105801160D01*
M02*
