M48
INCH,TZ
T1C0.016
T2C0.036
T3C0.052
T4C0.091
%
G90
G05
T1
X67800Y-46500
X68300Y-46500
X68800Y-46500
X69300Y-46500
X69800Y-46400
X70200Y-46300
X70300Y-41900
X70400Y-43200
X70800Y-44500
X72100Y-44300
X72300Y-46400
X72900Y-44500
T2
X67569Y-43122
X67569Y-44106
X67569Y-44894
X67569Y-45878
X68600Y-43122
X68600Y-44106
X68600Y-44894
X68600Y-45878
T3
X73000Y-42000
X73000Y-47000
T4
X66502Y-41913
X66502Y-47087
T0
M30
